<svg width="35" height="35" viewBox="0 0 35 35" fill="none" xmlns="http://www.w3.org/2000/svg">
<path fill-rule="evenodd" clip-rule="evenodd" d="M11.0136 0.0662877C8.55288 0.11746 8.1215 0.14611 7.56439 0.295568C4.36546 1.15323 1.92259 3.30725 0.717697 6.33268C0.54076 6.77717 0.33661 7.42029 0.264065 7.76185C-0.0311602 9.15309 -0.0890589 17.1227 0.142307 24.5293C0.237104 27.5623 0.28689 27.85 0.962377 29.2692C1.99372 31.4359 3.64456 33.0902 5.77062 34.0874C7.20605 34.7608 7.50938 34.8101 10.8488 34.9127C14.56 35.0267 24.1565 35.0298 25.8204 34.9174C26.5845 34.8659 27.2996 34.7672 27.6816 34.6605C31.1618 33.689 33.8951 30.8329 34.7621 27.2618C34.9307 26.5673 35.0704 15.3418 34.9615 11.2395C34.8895 8.5291 34.8674 8.23689 34.6778 7.4891C33.9418 4.58547 31.763 2.02249 29.0293 0.844795C27.5671 0.214752 27.1242 0.135014 24.6623 0.0580903C22.0764 -0.0227247 15.0886 -0.0185019 11.0136 0.0662877ZM9.8151 10.722C9.81559 10.7561 9.86986 11.2923 9.93571 11.9133C10.225 14.642 10.8618 16.619 11.9455 18.1535C12.7641 19.3126 14.1829 20.4979 14.931 20.6477C15.3997 20.7415 15.3953 20.7876 15.4227 15.4832L15.4477 10.6599H17.3399H19.2322L19.2619 13.3717C19.2782 14.8631 19.3221 16.1487 19.3594 16.2284C19.5673 16.672 20.8869 16.0327 22.0389 14.9303C22.9783 14.0313 23.7389 12.9224 24.331 11.5887L24.7432 10.6599H26.5506H28.3579L28.3017 11.0118C27.9891 12.9695 26.2915 15.6681 24.4263 17.1723C24.0557 17.4712 23.7243 17.7648 23.69 17.8246C23.6468 17.8998 23.9015 18.1448 24.5172 18.6202C26.3421 20.0293 27.5552 21.394 28.3431 22.9247C28.6755 23.5704 29.2533 24.9605 29.2533 25.1146C29.2533 25.1343 28.3416 25.1503 27.2274 25.1503H25.2015L24.7776 24.3016C24.2233 23.1915 23.794 22.5977 22.9896 21.8287C21.9902 20.8733 20.7711 20.2403 19.5958 20.0666L19.2442 20.0146V22.6218V25.229L19.0167 25.1936C18.8916 25.174 18.324 25.137 17.7553 25.1112C16.448 25.0519 15.3501 24.8718 14.4236 24.5647C13.5717 24.2822 12.2418 23.6324 11.5416 23.1565C8.28793 20.9448 6.3762 16.9249 5.96261 11.4259L5.90503 10.6599H7.85961C8.93463 10.6599 9.8146 10.6879 9.8151 10.722Z" fill="#4478E5"/>
</svg>
