<svg width="35" height="35" viewBox="0 0 35 35" fill="none" xmlns="http://www.w3.org/2000/svg">
<path fill-rule="evenodd" clip-rule="evenodd" d="M11.4279 0.086778C5.164 0.32055 2.39698 1.57388 1.17378 4.73121C0.388561 6.75819 0.126354 8.91263 0.0504934 13.9612L0 17.3226L0.239235 17.3223C1.04396 17.3214 4.67876 17.1356 5.93253 17.0314C10.1172 16.6833 12.1754 15.9627 14.0038 14.2057C15.1256 13.1277 15.7397 12.1588 16.2108 10.7235C16.8498 8.77652 17.1617 6.20668 17.2694 2.00034L17.3207 0L15.18 0.0132809C14.0026 0.0206224 12.3142 0.0537001 11.4279 0.086778ZM17.7085 0.804262C17.7086 1.85632 17.851 4.81897 17.9592 6.02165C18.3487 10.3506 19.1514 12.4687 21.0965 14.3004C22.8765 15.9765 24.9302 16.6707 29.1741 17.0304C29.9355 17.095 31.1348 17.1692 31.8393 17.1955C32.5438 17.2216 33.5431 17.2649 34.0601 17.2916L35 17.3401L34.9548 13.8049C34.9084 10.1697 34.8473 9.18723 34.5595 7.44763C34.3313 6.06785 34.0541 5.14662 33.5592 4.12442C33.1946 3.37122 33.0471 3.16632 32.4277 2.55236C31.614 1.74611 30.8981 1.33244 29.6081 0.923046C27.6027 0.28673 24.5658 0.00379451 19.7123 0.00107239L17.7083 0L17.7085 0.804262ZM0.0504934 21.0139C0.0782595 22.8627 0.139076 24.7836 0.185683 25.2827C0.625148 29.9917 1.67167 32.2253 4.01509 33.4559C5.98087 34.4882 8.32835 34.8273 14.2995 34.9414L17.2951 34.9987L17.295 33.8114C17.2947 32.334 17.165 29.8811 17.001 28.2523C16.611 24.3814 15.6081 22.0345 13.6304 20.3652C11.5437 18.6037 9.12637 18.0171 2.79231 17.735C1.7924 17.6905 0.755058 17.6538 0.487148 17.6533L0 17.6525L0.0504934 21.0139ZM31.798 17.7432C26.6708 17.9698 24.0531 18.5287 22.1607 19.8012C21.3919 20.3181 20.3203 21.3904 19.8114 22.1523C18.4627 24.1712 17.9148 27.0748 17.7357 33.1522L17.6812 35L20.6077 34.9432C24.0289 34.8769 25.6718 34.7814 27.2116 34.5593C33.488 33.654 34.9795 30.9189 34.9795 20.3142V17.6525L34.1325 17.665C33.6666 17.6718 32.6161 17.707 31.798 17.7432Z" fill="#2C3036"/>
</svg>
