<svg width="39" height="39" viewBox="0 0 39 39" fill="none" xmlns="http://www.w3.org/2000/svg">
<rect x="1" y="1" width="37" height="37" rx="11" fill="#FF652F" stroke="white" stroke-width="2"/>
<path d="M20 12C20.3956 12 20.7822 12.1173 21.1111 12.3371C21.44 12.5568 21.6964 12.8692 21.8478 13.2346C21.9991 13.6001 22.0387 14.0022 21.9616 14.3902C21.8844 14.7781 21.6939 15.1345 21.4142 15.4142C21.1345 15.6939 20.7781 15.8844 20.3902 15.9616C20.0022 16.0387 19.6001 15.9991 19.2346 15.8478C18.8692 15.6964 18.5568 15.44 18.3371 15.1111C18.1173 14.7822 18 14.3956 18 14C18.0006 13.4698 18.2115 12.9614 18.5865 12.5865C18.9614 12.2115 19.4698 12.0006 20 12ZM20 9C19.0111 9 18.0444 9.29324 17.2222 9.84265C16.3999 10.3921 15.759 11.173 15.3806 12.0866C15.0022 13.0002 14.9031 14.0055 15.0961 14.9755C15.289 15.9454 15.7652 16.8363 16.4645 17.5355C17.1637 18.2348 18.0546 18.711 19.0246 18.9039C19.9945 19.0969 20.9998 18.9978 21.9134 18.6194C22.827 18.241 23.6079 17.6001 24.1574 16.7779C24.7068 15.9556 25 14.9889 25 14C25 12.6739 24.4732 11.4021 23.5355 10.4645C22.5979 9.52678 21.3261 9 20 9Z" fill="white"/>
<path d="M20 23.25C18.2989 23.2509 16.6294 22.7899 15.1699 21.916C14.852 21.7246 14.6231 21.4148 14.5335 21.0547C14.4438 20.6947 14.5007 20.3138 14.6916 19.9956C14.8826 19.6775 15.192 19.4481 15.552 19.3579C15.9119 19.2677 16.2929 19.3241 16.6113 19.5146C17.6576 20.1259 18.8498 20.4427 20.0616 20.4314C21.2733 20.4202 22.4594 20.0813 23.4941 19.4506C23.65 19.3525 23.8237 19.2861 24.0053 19.2553C24.1869 19.2244 24.3728 19.2297 24.5523 19.2708C24.7319 19.3119 24.9015 19.3881 25.0516 19.4949C25.2017 19.6017 25.3292 19.737 25.4268 19.8932C25.5245 20.0494 25.5903 20.2233 25.6207 20.405C25.651 20.5867 25.6452 20.7725 25.6035 20.952C25.5619 21.1314 25.4852 21.3008 25.378 21.4506C25.2707 21.6003 25.135 21.7274 24.9785 21.8246C23.4857 22.7576 21.7604 23.2516 20 23.25Z" fill="white"/>
<path d="M23.9997 28.6001C23.8157 28.6003 23.6335 28.5642 23.4636 28.4938C23.2937 28.4235 23.1393 28.3202 23.0094 28.1899L19.9997 25.1802L16.9899 28.1899C16.86 28.3204 16.7057 28.424 16.5357 28.4947C16.3658 28.5654 16.1835 28.602 15.9994 28.6022C15.8153 28.6024 15.633 28.5663 15.4629 28.496C15.2928 28.4257 15.1382 28.3225 15.008 28.1924C14.8778 28.0622 14.7745 27.9077 14.7041 27.7376C14.6337 27.5675 14.5975 27.3852 14.5977 27.2011C14.5978 27.017 14.6342 26.8348 14.7049 26.6648C14.7755 26.4948 14.879 26.3404 15.0094 26.2105L19.9997 21.2202L24.9899 26.2104C25.1856 26.4063 25.3189 26.6557 25.3729 26.9273C25.4269 27.1988 25.3991 27.4803 25.2931 27.7361C25.1872 27.9919 25.0077 28.2105 24.7775 28.3643C24.5472 28.5181 24.2765 28.6002 23.9997 28.6001Z" fill="white"/>
</svg>
