<svg width="34" height="35" viewBox="0 0 34 35" fill="none" xmlns="http://www.w3.org/2000/svg">
<path fill-rule="evenodd" clip-rule="evenodd" d="M8.8549 0.0213671C7.1876 0.186538 5.71085 0.708875 4.3843 1.6027C2.27587 3.02334 0.936768 4.96738 0.213403 7.65789L0 8.45145V17.393C0 25.8109 0.00877443 26.3758 0.15005 27.0383C1.00487 31.0465 4.05466 34.0945 7.98422 34.8678C8.88799 35.0456 24.9783 35.0434 25.9713 34.8653C29.4644 34.2388 32.3508 31.6717 33.4846 28.1834C34.0235 26.5253 34.0205 26.5907 33.9883 17.0727C33.9566 7.74391 33.9844 8.30971 33.4822 6.7711C32.5654 3.9622 30.3222 1.61595 27.5709 0.588164C27.2389 0.464058 26.6412 0.284564 26.2427 0.189187C25.5346 0.0196285 25.3339 0.0154056 17.3476 0.00257279C12.8537 -0.00463015 9.032 0.00381509 8.8549 0.0213671ZM27.3211 9.36507C27.4585 9.52602 27.5709 9.71064 27.5709 9.77538C27.5709 10.2183 24.3569 24.9151 24.1435 25.448C23.9876 25.8375 23.4163 26.0956 23.0132 25.9588C22.8564 25.9056 21.589 25.0835 20.1965 24.132C18.804 23.1805 17.6355 22.402 17.5998 22.402C17.564 22.402 17.0308 22.89 16.4148 23.4866C14.7136 25.1341 14.4914 25.263 14.0161 24.8785C13.7117 24.6322 13.6658 24.521 12.7701 21.8603C12.3263 20.5417 11.9229 19.3463 11.8737 19.204C11.7728 18.9116 11.9442 18.9764 9.2574 18.2143C6.76418 17.5071 6.48678 17.3874 6.3649 16.9665C6.27096 16.6419 6.60624 16.3836 7.64741 15.9785C8.17871 15.7719 10.2254 15.0046 12.1956 14.2737C14.1658 13.5427 17.6253 12.2558 19.8833 11.4139C25.8589 9.18607 26.1798 9.07513 26.657 9.07364C27.0311 9.07248 27.0954 9.10071 27.3211 9.36507ZM22.5794 12.6173C20.5573 13.7522 14.0609 17.5922 13.2118 18.1545L12.6581 18.521L12.7065 18.8843C12.755 19.248 13.8787 22.8235 14.045 23.143C14.0935 23.2363 14.1622 23.3127 14.1976 23.3127C14.233 23.3127 14.3237 22.7817 14.399 22.1329C14.4743 21.484 14.5734 20.7575 14.6192 20.5184L14.7025 20.0837L16.9307 18.2046C23.3638 12.7793 23.868 12.3393 23.868 12.1506C23.868 11.9546 23.5644 12.0645 22.5794 12.6173Z" fill="#1C8ADB"/>
</svg>
