<svg width="1920" height="907" viewBox="0 0 1920 907" fill="none" xmlns="http://www.w3.org/2000/svg">
<g clip-path="url(#clip0_3_664)">
<path d="M2622.62 401.689C2615.57 394.934 2608.51 387.505 2604.28 378.049C2599.34 367.242 2599.34 356.436 2599.34 345.629C2599.34 340.226 2599.34 334.822 2598.63 329.419C2593.69 290.92 2553.47 266.606 2518.9 259.851C2509.02 257.825 2498.43 257.15 2487.14 257.15C2457.51 257.15 2426.46 263.904 2399.65 269.307C2396.83 269.983 2394 269.307 2392.59 267.281C2391.18 265.255 2390.48 262.553 2391.89 260.527C2408.82 225.405 2378.48 183.529 2341.79 161.916C2309.33 143.005 2271.93 133.549 2233.12 133.549C2205.6 133.549 2178.09 138.952 2153.39 148.408C2149.86 149.759 2145.63 148.408 2144.22 145.031C2111.05 72.7613 2032.73 20.0788 1950.88 14.6755C1945.94 14.6755 1941 14 1936.77 14C1858.44 14 1781.53 55.2005 1740.61 118.014C1739.9 119.365 1737.78 120.716 1735.67 121.391C1733.55 122.067 1731.43 121.391 1730.02 120.04C1701.09 99.1024 1665.1 88.2957 1626.3 88.2957C1547.97 88.2957 1473.88 132.198 1447.78 194.336C1447.07 196.362 1445.66 197.713 1443.54 198.389C1441.42 199.064 1439.31 199.064 1437.9 197.713C1387.09 170.696 1332.05 162.592 1287.6 178.126C1236.8 195.011 1202.93 245.668 1211.39 290.92C1212.1 292.947 1211.39 294.973 1209.98 296.324C1208.57 297.675 1206.46 299.025 1204.34 298.35C1202.22 298.35 1199.4 298.35 1197.28 298.35C1135.89 298.35 1085.09 345.629 1070.27 363.19C1027.23 416.548 1015.23 500.975 1042.75 554.332C1055.45 579.323 1082.97 609.717 1140.83 609.717C1147.89 609.717 1154.95 609.041 1162 608.366C1164.12 608.366 1165.53 608.366 1167.65 609.717C1169.06 611.067 1169.76 612.418 1170.47 614.445C1174.7 663.75 1227.62 697.521 1275.61 697.521C1295.36 697.521 1313.71 692.117 1327.82 681.311C1329.94 679.96 1332.05 679.284 1334.17 679.96C1336.29 680.635 1338.41 681.986 1339.11 684.012C1357.46 734.668 1414.61 769.79 1478.82 769.79C1513.4 769.79 1545.86 758.308 1568.44 738.045C1569.85 736.695 1571.26 736.019 1573.37 736.019H1574.08C1576.2 736.019 1578.31 737.37 1579.02 739.396C1597.37 768.439 1634.76 786 1674.98 786C1710.97 786 1743.43 771.816 1762.48 748.177C1763.89 746.826 1765.3 745.475 1767.42 745.475C1769.54 745.475 1770.95 746.15 1773.06 746.826C1801.99 771.141 1840.8 783.974 1882.43 783.974C1919.13 783.974 1954.41 773.167 1981.92 753.58C1984.04 752.229 1986.86 751.554 1988.98 752.905C2005.92 761.01 2024.97 765.062 2044.72 765.062C2088.47 765.062 2130.1 745.475 2154.8 714.406C2156.21 712.38 2158.33 711.704 2160.45 711.704C2162.56 711.704 2164.68 713.055 2166.09 714.406C2182.32 736.019 2210.54 748.177 2242.3 748.177C2282.52 748.177 2317.8 729.265 2331.91 699.547C2332.62 698.196 2334.03 696.845 2336.14 696.17C2338.26 695.494 2339.67 695.494 2341.79 696.845C2358.72 704.95 2377.77 709.003 2397.53 709.003C2460.33 709.003 2518.19 669.828 2537.95 618.497C2519.6 636.058 2494.2 646.864 2468.09 646.864C2464.56 646.864 2461.74 646.864 2458.21 646.189C2454.69 645.513 2451.86 642.136 2451.86 638.759C2452.57 635.382 2455.39 632.681 2459.63 632.681C2488.56 636.058 2519.6 621.874 2536.54 598.234C2552.77 574.595 2554.88 542.175 2540.77 517.185C2538.65 513.807 2540.07 509.755 2543.59 507.729C2547.12 505.703 2551.36 507.053 2553.47 510.43C2565.47 532.044 2567.58 559.06 2559.82 582.024C2586.64 563.113 2615.57 541.5 2633.21 513.132C2650.85 484.765 2659.31 440.187 2634.62 410.469C2629.68 409.118 2626.15 405.741 2622.62 401.689ZM1573.37 639.435C1560.67 649.566 1544.44 654.969 1527.51 654.969C1521.16 654.969 1514.1 654.294 1507.75 652.943C1486.58 648.215 1468.94 636.058 1459.77 619.848C1432.25 637.409 1395.56 641.461 1363.81 630.654C1329.94 619.172 1303.12 589.454 1295.36 555.683C1294.66 552.306 1296.77 548.254 1301.01 547.578C1304.54 546.903 1308.77 548.929 1309.47 552.982C1315.83 582.7 1339.11 607.69 1368.75 618.497C1398.38 628.628 1432.96 623.225 1457.65 604.989C1459.06 603.638 1461.89 602.962 1464 603.638C1466.12 604.313 1468.24 605.664 1468.94 607.69C1475.29 623.9 1491.52 636.058 1511.28 640.786C1531.04 645.514 1551.5 641.461 1564.91 630.654C1567.73 627.953 1571.96 628.628 1574.79 631.33C1576.9 632.681 1576.9 637.409 1573.37 639.435ZM1642.52 273.36C1640.41 276.061 1635.47 276.737 1632.65 274.71C1611.48 259.851 1582.55 256.474 1557.85 265.255C1533.86 274.035 1514.1 295.648 1509.16 319.963C1508.46 321.99 1507.05 324.016 1504.93 324.691C1502.81 325.367 1499.99 325.367 1497.87 324.016C1484.47 313.885 1465.42 309.832 1447.07 312.534C1428.02 315.235 1411.79 324.691 1401.91 337.524C1400.5 339.55 1398.38 340.226 1396.27 340.226C1394.85 340.226 1393.44 339.55 1392.03 338.875C1389.21 336.849 1388.5 332.796 1390.62 329.419C1402.62 313.209 1423.08 301.727 1444.95 299.025C1464 296.324 1482.35 299.701 1497.87 307.806C1506.34 282.815 1527.51 261.878 1552.91 252.422C1581.84 242.291 1615.71 246.343 1640.41 263.904C1644.64 265.93 1644.64 270.658 1642.52 273.36ZM2107.52 659.022C2101.88 679.284 2082.12 695.494 2059.54 696.17C2041.2 696.845 2022.85 687.389 2013.68 673.206C1993.21 692.793 1964.99 703.599 1936.77 703.599C1933.94 703.599 1931.12 703.599 1927.59 702.924C1892.31 700.222 1859.85 679.96 1842.21 650.241C1840.1 646.864 1841.51 642.812 1845.04 640.786C1848.56 638.759 1852.8 640.11 1854.91 643.487C1869.73 669.153 1898.66 686.714 1929 688.74C1960.05 691.442 1990.39 678.609 2010.15 655.645C2011.56 653.618 2014.38 652.943 2016.5 652.943C2019.32 653.618 2021.44 654.969 2022.14 656.996C2027.79 671.179 2043.31 681.986 2059.54 680.635C2075.07 679.96 2090.59 668.478 2094.12 653.619C2094.82 650.241 2099.06 647.54 2102.58 648.891C2106.11 651.592 2108.94 655.645 2107.52 659.022ZM2247.24 308.481C2245.82 310.507 2243.71 311.858 2241.59 311.858C2240.18 311.858 2238.77 311.183 2238.06 310.508C2234.53 308.481 2233.83 304.429 2235.95 301.052C2244.41 288.219 2244.41 270.658 2235.95 257.825C2230.3 249.72 2221.83 246.343 2211.96 241.615C2203.49 238.238 2195.02 234.185 2187.96 227.431C2180.91 220.677 2176.67 211.897 2173.15 203.792C2169.62 196.362 2166.09 188.933 2159.74 182.854C2143.51 167.995 2100.47 135.575 2051.78 155.837C2048.25 157.188 2044.02 155.837 2042.61 152.46C2041.2 149.083 2042.61 145.031 2046.14 143.68C2085.65 127.47 2130.81 138.276 2169.62 173.398C2177.38 180.828 2181.61 189.608 2185.85 198.389C2189.38 205.818 2192.2 212.572 2197.84 217.976C2202.78 222.703 2210.54 226.081 2217.6 229.458C2228.18 234.186 2240.18 238.913 2247.94 250.395C2258.53 267.956 2258.53 290.92 2247.24 308.481Z" fill="white"/>
<path d="M2328.69 700.501C2329.4 699.149 2330.81 697.798 2332.93 697.122C2335.05 696.446 2336.46 696.446 2338.57 697.798C2355.51 705.907 2374.57 709.962 2394.33 709.962C2457.15 709.962 2515.03 670.767 2534.79 619.408C2516.44 636.978 2491.03 647.791 2464.91 647.791C2461.38 647.791 2458.56 647.791 2455.03 647.115C2451.5 646.439 2448.68 643.06 2448.68 639.681C2449.39 636.302 2452.21 633.599 2456.44 633.599C2485.38 636.978 2516.44 622.787 2533.38 599.135C2549.61 575.483 2551.73 543.046 2537.61 518.042V517.366C2486.79 510.608 2438.8 484.253 2407.04 445.734C2378.81 465.331 2351.28 484.929 2323.05 503.851C2282.82 531.557 2241.17 559.94 2193.18 570.077C2144.48 580.213 2087.31 566.022 2062.6 524.8C2044.25 565.346 2000.49 593.729 1954.62 595.756C1908.74 597.108 1862.86 572.104 1841.69 532.909C1794.4 570.752 1733.7 597.783 1672.29 593.053C1610.89 588.322 1550.89 545.073 1542.42 486.956C1446.44 532.909 1317.98 500.472 1257.98 416C1212.11 451.14 1161.29 485.605 1102.71 489.659C1076.59 491.687 1048.36 484.253 1025.77 471.414C1022.95 501.823 1027.89 531.557 1039.89 555.21C1052.59 580.213 1080.12 610.623 1138 610.623C1145.06 610.623 1152.11 609.947 1159.17 609.271C1161.29 609.271 1162.7 609.272 1164.82 610.623C1166.23 611.975 1166.94 613.326 1167.64 615.353C1171.88 664.685 1224.81 698.474 1272.81 698.474C1292.57 698.474 1310.92 693.067 1325.04 682.255C1327.15 680.903 1329.27 680.228 1331.39 680.904C1333.51 681.579 1335.62 682.931 1336.33 684.958C1354.68 735.641 1411.85 770.781 1476.08 770.781C1510.66 770.781 1543.13 759.293 1565.72 739.02C1567.13 737.669 1568.54 736.993 1570.66 736.993H1571.36C1573.48 736.993 1575.6 738.344 1576.3 740.372C1594.65 769.43 1632.06 787 1672.29 787C1708.29 787 1740.76 772.809 1759.81 749.157C1761.22 747.805 1762.64 746.454 1764.75 746.454C1766.87 746.454 1768.28 747.129 1770.4 747.805C1799.34 772.133 1838.16 784.973 1879.8 784.973C1916.5 784.973 1951.79 774.16 1979.32 754.563C1981.44 753.211 1984.26 752.536 1986.38 753.887C2003.32 761.996 2022.37 766.051 2042.14 766.051C2085.9 766.051 2127.54 746.454 2152.24 715.368C2153.65 713.341 2155.77 712.665 2157.89 712.665C2160.01 712.665 2162.12 714.017 2163.53 715.368C2179.77 736.993 2208 749.157 2239.76 749.157C2279.29 749.157 2314.58 729.559 2328.69 700.501ZM1572.77 639.005C1560.07 649.142 1543.84 654.548 1526.9 654.548C1520.54 654.548 1513.49 653.873 1507.13 652.521C1485.96 647.791 1468.31 635.627 1459.14 619.408C1431.61 636.978 1394.91 641.033 1363.15 630.221C1329.27 618.732 1302.45 588.998 1294.69 555.21C1293.98 551.831 1296.1 547.776 1300.33 547.1C1303.86 546.424 1308.1 548.452 1308.8 552.506C1315.15 582.241 1338.45 607.244 1368.09 618.056C1397.73 628.193 1432.32 622.787 1457.02 604.541C1458.43 603.189 1461.26 602.514 1463.37 603.19C1465.49 603.865 1467.61 605.217 1468.32 607.244C1474.67 623.463 1490.9 635.627 1510.66 640.357C1530.43 645.088 1550.89 641.033 1564.3 630.221C1567.13 627.517 1571.36 628.193 1574.19 630.896C1576.3 632.248 1576.3 636.978 1572.77 639.005ZM2107.07 658.603C2101.42 678.876 2081.66 695.095 2059.07 695.77C2040.72 696.446 2022.37 686.985 2013.2 672.794C1992.73 692.392 1964.5 703.204 1936.26 703.204C1933.44 703.204 1930.62 703.204 1927.09 702.528C1891.8 699.825 1859.33 679.552 1841.69 649.818C1839.57 646.439 1840.98 642.384 1844.51 640.357C1848.04 638.33 1852.27 639.681 1854.39 643.06C1869.21 668.74 1898.15 686.31 1928.5 688.337C1959.56 691.04 1989.91 678.2 2009.67 655.224C2011.08 653.197 2013.9 652.521 2016.02 652.521C2018.84 653.197 2020.96 654.548 2021.67 656.576C2027.31 670.767 2042.84 681.579 2059.07 680.228C2074.6 679.552 2090.13 668.064 2093.66 653.197C2094.37 649.818 2098.6 647.115 2102.13 648.466C2105.66 651.169 2108.48 655.224 2107.07 658.603Z" fill="#FCFEFF"/>
<path d="M2631.83 392.236C2625.48 385.485 2619.13 379.409 2616.31 372.658C2612.78 364.557 2612.78 355.106 2612.08 345.654C2612.08 340.253 2612.08 334.177 2611.37 328.101C2605.02 282.869 2559.87 254.515 2520.36 247.089C2509.07 245.063 2497.78 243.713 2485.79 243.713C2458.98 243.713 2432.17 248.439 2406.77 253.84C2415.94 214.684 2384.9 172.152 2346.8 149.874C2312.23 130.295 2272.72 119.494 2231.09 119.494C2204.28 119.494 2176.77 124.219 2152.07 132.996C2115.39 59.4094 2034.96 6.07599 1949.59 0.675147C1944.65 0.675147 1939 0 1934.07 0C1853.64 0 1774.62 40.5063 1730.17 104.641C1699.83 85.0633 1663.85 74.9368 1623.63 74.9368C1542.5 74.9368 1466.3 118.819 1434.55 182.278C1382.34 155.949 1325.2 149.198 1279.34 165.401C1225.01 183.629 1188.33 236.287 1193.26 284.895C1129.06 285.57 1075.44 330.802 1056.39 355.106C1009.83 413.165 997.128 501.603 1027.47 560.338C1050.75 604.895 1095.2 627.173 1153.75 622.447C1162.22 675.781 1220.07 710.886 1272.28 710.886C1292.04 710.886 1310.38 706.16 1325.2 696.709C1348.48 748.017 1408.45 783.797 1474.77 783.797C1510.04 783.797 1543.2 772.996 1567.9 753.418C1590.47 782.447 1629.28 800 1671.61 800C1709.71 800 1743.57 786.498 1765.44 762.194C1796.49 785.823 1836 798.65 1878.33 798.65C1916.43 798.65 1953.11 787.848 1982.75 767.595C2000.38 775.021 2020.14 779.072 2040.6 779.072C2085.05 779.072 2128.79 760.169 2156.31 729.789C2175.36 750.717 2204.99 762.194 2238.15 762.194C2280.48 762.194 2319.28 742.616 2337.63 711.561C2354.56 718.987 2373.61 722.363 2393.36 722.363C2469.56 722.363 2540.82 668.354 2553.52 601.519C2584.56 579.916 2619.84 555.612 2641.71 521.182C2662.87 488.101 2671.34 438.819 2642.41 403.038C2639.59 398.987 2635.36 395.612 2631.83 392.236ZM2629.71 514.43C2612.08 542.785 2583.85 564.388 2556.34 583.291C2564.1 559.663 2561.98 533.333 2549.99 511.73C2547.87 508.355 2543.64 507.004 2540.11 509.03C2536.58 511.055 2535.17 515.106 2537.29 518.481C2551.4 543.46 2549.99 575.865 2533.06 599.494C2516.83 623.122 2485.79 636.625 2456.15 633.924C2451.92 633.249 2449.1 635.949 2448.39 640C2447.69 643.376 2450.51 646.751 2454.74 647.426C2458.27 647.426 2461.09 648.101 2464.62 648.101C2490.72 648.101 2516.12 637.3 2534.47 619.747C2514.71 671.055 2456.15 710.211 2394.07 710.211C2373.61 710.211 2355.26 706.161 2338.33 698.059C2336.92 697.384 2334.8 697.384 2332.69 697.384C2330.57 698.059 2329.16 699.409 2328.45 700.76C2313.64 730.464 2278.36 749.367 2238.85 749.367C2207.1 749.367 2178.88 737.215 2162.66 715.612C2161.24 713.586 2159.13 712.911 2157.01 712.911C2154.89 712.911 2152.78 713.586 2151.37 715.612C2127.38 746.667 2085.05 766.245 2041.31 766.245C2021.55 766.245 2002.5 762.194 1985.57 754.093C1983.45 752.743 1980.63 753.418 1978.51 754.768C1951 774.346 1915.72 785.148 1879.03 785.148C1838.11 785.148 1799.31 771.646 1769.68 748.017C1768.27 746.667 1766.15 745.992 1764.03 746.667C1761.92 746.667 1760.51 748.017 1759.09 749.367C1740.05 773.671 1707.59 787.173 1671.61 787.173C1630.69 787.173 1594 768.945 1575.66 740.591C1574.25 738.565 1572.84 737.89 1570.72 737.215H1570.01C1567.9 737.215 1566.49 737.89 1565.08 739.24C1542.5 759.494 1510.04 770.971 1475.47 770.971C1411.98 770.971 1354.12 735.865 1335.78 685.232C1335.07 683.207 1332.96 681.857 1330.84 681.182C1328.72 680.506 1326.61 681.181 1324.49 682.532C1310.38 693.333 1292.04 698.734 1272.28 698.734C1225.01 698.734 1171.39 665.654 1167.16 615.696C1167.16 613.671 1165.75 612.321 1164.34 610.97C1162.93 609.62 1160.81 609.62 1158.69 609.62C1151.64 610.295 1143.88 610.97 1137.53 610.97C1080.38 610.97 1052.86 581.266 1039.46 555.612C1011.94 502.279 1023.94 418.565 1066.97 364.557C1081.79 346.329 1132.59 299.747 1193.97 299.747C1196.09 299.747 1198.91 299.747 1201.02 299.747C1203.14 299.747 1205.26 299.072 1206.67 297.722C1208.08 296.371 1208.79 294.346 1208.08 292.321C1198.91 247.764 1233.48 197.131 1284.28 179.578C1328.72 164.726 1384.46 172.152 1434.55 199.156C1436.67 199.831 1438.08 200.506 1440.2 199.831C1442.31 199.156 1443.73 197.806 1444.43 195.781C1471.24 133.671 1544.62 89.7892 1622.93 89.7892C1662.44 89.7892 1698.42 100.591 1726.64 121.519C1728.05 122.869 1730.17 122.869 1732.28 122.869C1734.4 122.194 1735.81 121.519 1737.22 119.494C1778.14 56.0338 1855.05 15.5275 1933.36 15.5275C1938.3 15.5275 1943.24 15.5276 1947.47 16.2027C2030.02 21.6035 2107.62 73.5866 2140.78 146.498C2142.2 149.874 2146.43 151.224 2149.96 149.874C2174.65 139.747 2202.16 135.021 2229.68 135.021C2268.48 135.021 2305.88 145.148 2338.33 163.376C2375.02 184.979 2405.36 226.836 2388.42 261.941C2387.01 263.966 2387.72 266.667 2389.13 268.692C2390.54 270.717 2393.36 271.392 2396.18 270.717C2423.7 264.641 2454.04 258.566 2483.67 258.566C2494.96 258.566 2505.54 259.241 2515.42 261.266C2549.99 268.017 2589.5 292.321 2595.14 330.802C2595.85 336.203 2595.85 340.928 2595.85 347.004C2595.85 357.806 2595.85 368.608 2600.79 379.409C2605.02 388.861 2612.08 396.287 2619.13 403.038C2622.66 406.414 2626.19 409.789 2629.01 413.84C2655.82 441.519 2648.06 486.076 2629.71 514.43Z" fill="#F8FCFE"/>
<path d="M1564.02 627.797C1550.59 639.226 1530.1 642.588 1510.32 637.882C1490.53 633.175 1474.28 621.074 1467.92 604.939C1467.22 602.922 1465.1 601.577 1462.98 600.905C1460.86 600.233 1458.74 600.905 1456.62 602.25C1431.89 621.074 1396.56 626.452 1367.59 615.696C1337.92 605.611 1314.6 580.063 1308.24 550.482C1307.53 547.121 1304 544.431 1299.76 545.104C1296.23 545.776 1293.4 549.137 1294.11 553.171C1301.88 586.786 1328.73 616.368 1362.65 627.797C1393.73 638.554 1430.48 634.52 1458.74 617.04C1468.63 633.175 1485.59 645.277 1506.78 649.983C1513.14 651.328 1520.21 652 1526.57 652C1544.23 652 1560.48 646.622 1572.49 636.537C1575.32 633.848 1576.03 629.814 1573.2 627.125C1571.79 625.78 1567.55 625.108 1564.02 627.797Z" fill="#F8FCFE"/>
<path d="M1553.29 251.443C1527.92 260.872 1506.78 281.751 1498.33 306.671C1482.83 298.589 1463.8 295.222 1445.48 297.916C1422.94 301.283 1403.21 312.059 1391.23 328.224C1389.12 330.918 1389.82 335.632 1392.64 337.653C1394.05 338.326 1395.46 339 1396.87 339C1398.98 339 1401.09 338.327 1402.5 336.306C1412.37 322.836 1429.28 314.08 1447.6 311.386C1466.62 308.692 1484.94 312.733 1498.33 322.836C1500.44 324.183 1502.56 324.856 1505.37 323.509C1507.49 322.836 1509.6 320.815 1509.6 318.795C1515.24 294.548 1534.26 272.996 1558.22 264.24C1582.18 255.484 1611.77 259.525 1632.91 273.669C1635.73 275.69 1640.66 275.016 1642.77 272.322C1644.88 269.628 1644.18 264.913 1641.36 262.893C1616 245.382 1581.47 241.341 1553.29 251.443Z" fill="#F8FCFE"/>
<path d="M2102.68 649.693C2099.15 649.023 2094.91 651.034 2094.21 654.386C2089.97 669.136 2075.13 680.534 2059.59 681.204C2044.05 681.875 2027.8 671.818 2022.15 657.738C2021.44 655.727 2019.32 653.716 2016.49 653.716C2013.67 653.045 2011.55 654.386 2010.14 656.398C1990.35 679.193 1959.98 691.261 1928.89 689.25C1898.51 686.568 1869.55 669.136 1854.71 644.329C1852.59 640.977 1848.35 640.307 1844.82 641.647C1841.29 643.659 1839.88 647.682 1842 651.034C1859.66 680.534 1892.16 699.977 1927.48 703.33C1930.3 703.33 1933.13 704 1936.66 704C1965.63 704 1993.89 692.602 2013.67 673.829C2023.56 688.58 2041.22 697.966 2059.59 696.625C2081.49 695.954 2101.98 679.864 2107.63 659.75C2109.04 654.386 2106.22 650.364 2102.68 649.693Z" fill="#F8FCFE"/>
<path d="M630.181 685.376C641.567 685.376 652.32 682.299 661.808 676.487C663.39 675.462 665.287 676.145 666.236 677.513C677.939 698.367 698.497 712.385 720.953 715.803C724.115 716.145 727.278 716.487 730.441 716.487C749.418 716.487 767.762 708.624 781.678 695.291C774.72 691.872 768.078 687.427 761.437 682.983C759.855 681.957 759.539 679.906 760.488 678.197C761.436 676.487 763.334 676.145 764.916 677.171C773.771 682.983 782.943 689.137 792.748 692.556C803.502 696.316 813.939 695.974 821.846 692.214C823.427 691.53 825.325 692.214 825.957 693.923C826.59 695.632 825.957 697.684 824.376 698.367C819.316 700.761 813.623 702.128 807.613 702.128C802.237 702.128 796.543 701.103 790.534 699.051C790.534 699.051 790.218 699.051 790.218 698.709C806.664 720.932 834.181 734.607 863.278 734.607C885.418 734.607 905.976 726.744 921.158 712.726C921.79 712.043 922.423 712.043 923.372 712.043H923.688C924.637 712.043 925.269 712.726 925.902 713.41C936.023 728.111 953.418 737 972.395 737C990.739 737 1007.5 728.795 1017.62 715.12C1026.48 702.812 1041.98 701.103 1057.16 699.393C1065.38 698.368 1073.92 697.684 1080.56 694.949C1115.35 681.273 1145.08 648.795 1156.15 612.556C1162.48 592.043 1165.64 560.932 1146.03 528.795C1130.85 503.838 1101.75 487.769 1072.34 487.769C1055.26 487.769 1039.45 492.897 1026.79 502.812C1026.16 503.496 1024.9 503.496 1024.26 503.496C1023.32 503.154 1022.68 502.47 1022.05 501.444C1007.5 465.889 975.242 440.248 939.502 435.462C937.288 435.12 935.39 435.12 933.493 435.12C925.586 435.12 919.892 437.513 917.046 441.957C916.413 442.983 915.465 443.325 914.2 443.325C913.251 443.325 912.302 442.641 911.669 441.615C891.744 401.615 848.413 377 799.074 377C785.157 377 771.874 379.051 758.906 382.812C723.799 393.752 694.069 415.974 675.725 446.06C657.064 476.487 651.055 515.462 659.594 548.282C671.613 537.684 687.427 532.897 702.925 534.949C707.036 535.632 711.464 537.342 713.995 540.419C719.371 531.872 729.176 526.402 738.981 527.085C750.999 527.769 761.753 537 765.548 549.65C766.181 551.359 765.232 553.41 763.334 554.094C761.753 554.778 759.855 553.752 759.223 551.701C756.376 541.786 747.52 534.607 738.348 533.923C728.86 533.239 719.688 540.077 716.841 549.65C716.208 551.359 714.943 552.385 713.362 552.043C711.781 551.701 710.832 550.333 710.832 548.624C710.832 545.547 706.404 542.812 701.976 542.128C686.478 539.735 670.032 545.889 659.278 558.197C648.525 570.504 643.78 588.282 646.627 605.034C646.943 606.744 645.678 608.795 644.097 609.137C643.78 609.137 643.78 609.137 643.464 609.137C641.883 609.137 640.618 608.111 640.301 606.402C637.139 588.624 641.883 569.137 652.952 555.462C645.994 552.385 638.404 551.017 630.813 551.017C610.255 551.017 590.329 561.273 578.943 578.026C561.548 603.325 563.446 641.273 582.739 664.521C594.125 677.171 611.836 685.376 630.181 685.376ZM1014.14 705.889C1017.94 704.863 1021.1 701.786 1024.26 699.393C1036.6 689.137 1047.67 678.88 1051.78 664.863C1052.1 663.838 1053.05 662.812 1054 662.47C1054.94 662.128 1056.21 662.47 1056.84 663.154C1060.32 666.914 1065.7 668.624 1071.39 668.282C1076.77 667.94 1081.83 665.205 1084.99 661.103C1088.15 657 1089.1 650.504 1086.26 647.769C1084.99 646.402 1084.67 644.35 1085.94 642.983C1087.2 641.615 1089.1 641.273 1090.37 642.641C1096.69 648.453 1095.11 659.051 1090.05 665.547C1085.62 671.017 1078.98 674.436 1071.71 675.12C1066.01 675.462 1060.64 674.094 1056.21 671.017C1050.83 684.692 1040.08 694.607 1028.06 704.521C1024.58 707.256 1020.79 710.675 1015.73 712.043C1013.83 712.726 1011.61 713.068 1009.4 713.068C1004.66 713.068 999.911 711.701 995.8 710.675L976.823 705.205C975.241 704.863 974.293 702.812 974.609 701.103C974.925 699.393 976.823 698.368 978.404 698.709L997.697 704.521C1003.07 705.889 1008.77 707.598 1014.14 705.889ZM937.921 501.103C946.46 496.316 957.53 496.658 966.069 501.786C973.344 506.231 978.088 514.436 979.669 523.325C986.628 521.615 994.535 524.35 999.595 530.504C1004.66 537 1006.87 546.231 1005.92 556.145C1005.6 558.538 1004.34 561.273 1002.13 562.299C1001.49 562.641 1000.86 562.641 1000.23 562.641C999.279 562.641 998.646 562.299 997.697 561.957C996.116 560.932 995.8 558.88 996.748 557.171C997.381 556.145 998.33 555.803 999.279 555.803V555.462C1000.23 547.598 998.646 540.077 994.534 535.291C990.423 530.162 983.149 528.111 978.088 531.188C977.139 531.872 975.874 531.872 974.925 531.188C973.976 530.504 973.344 529.479 973.344 528.453C973.344 520.248 968.916 512.043 962.274 507.94C955.632 503.838 947.093 503.496 940.451 507.256C938.869 508.282 936.972 507.598 936.339 505.889C935.707 504.179 936.339 502.128 937.921 501.103ZM813.939 410.162C825.009 407.085 837.344 409.479 847.781 417C858.218 424.521 865.176 435.803 867.074 447.769C867.39 449.479 866.125 451.53 864.544 451.53C864.227 451.53 864.227 451.53 863.911 451.53C862.33 451.53 861.065 450.162 860.748 448.795C859.167 438.538 853.157 428.966 844.302 422.47C835.446 415.974 825.009 413.923 815.52 416.658C813.939 417 812.041 415.974 811.725 414.265C811.092 412.214 812.041 410.504 813.939 410.162Z" fill="white"/>
<path d="M1108.09 594.599C1102.39 596.648 1096.06 595.965 1090.36 598.014C1084.03 600.405 1078.65 605.528 1072.95 609.285C1054.26 621.581 1028.3 619.873 1011.52 604.845C999.17 633.877 960.54 645.148 936.476 626.363C892.78 668.032 817.104 661.542 780.374 612.701C759.793 641.049 712.614 637.975 695.199 607.236C677.467 614.408 659.736 621.239 641.054 624.655C619.523 628.754 595.458 628.07 577.727 613.725C574.244 610.993 571.077 607.236 568.228 603.137C564.428 623.972 569.494 646.856 582.793 662.567C594.192 676.229 612.24 684.426 630.605 684.426C642.004 684.426 652.77 681.352 662.269 675.546C663.852 674.521 665.752 675.204 666.701 676.57C678.417 697.405 698.998 711.408 721.48 714.824C724.646 715.165 727.812 715.507 730.979 715.507C749.977 715.507 768.342 707.651 782.274 694.331C775.308 690.915 768.658 686.475 762.009 682.035C760.426 681.011 760.109 678.961 761.059 677.254C762.009 675.546 763.909 675.204 765.492 676.229C774.358 682.035 783.54 688.183 793.356 691.599C804.122 695.356 814.571 695.014 822.487 691.257C824.07 690.574 825.97 691.257 826.603 692.965C827.236 694.673 826.603 696.722 825.02 697.405C819.953 699.796 814.254 701.162 808.238 701.162C802.855 701.162 797.156 700.137 791.14 698.088C791.14 698.088 790.823 698.088 790.823 697.746C807.288 719.947 834.835 733.609 863.966 733.609C886.13 733.609 906.712 725.754 921.911 711.75C922.544 711.067 923.177 711.067 924.127 711.067H924.444C925.393 711.067 926.027 711.75 926.66 712.433C936.792 727.12 954.207 736 973.205 736C991.57 736 1008.35 727.803 1018.48 714.141C1027.35 701.845 1042.87 700.137 1058.06 698.43C1066.3 697.405 1074.85 696.722 1081.5 693.989C1116.33 680.327 1146.09 647.88 1157.17 611.676C1162.55 594.257 1165.72 568.982 1154 542C1146.09 553.954 1137.54 565.908 1128.67 577.18C1122.97 584.011 1116.64 591.525 1108.09 594.599ZM1090.68 665.299C1086.24 670.764 1079.6 674.18 1072.31 674.863C1066.61 675.204 1061.23 673.838 1056.8 670.764C1051.41 684.426 1040.65 694.331 1028.62 704.236C1025.13 706.968 1021.33 710.384 1016.27 711.75C1014.37 712.433 1012.15 712.775 1009.94 712.775C1005.19 712.775 1000.44 711.408 996.32 710.384L977.638 704.577C976.055 704.236 975.105 702.187 975.422 700.479C975.739 698.771 977.638 697.747 979.222 698.088L998.536 703.894C1003.6 705.261 1009.62 707.31 1015 705.602C1018.8 704.577 1021.97 701.504 1025.13 699.113C1037.48 688.866 1048.57 678.62 1052.68 664.616C1053 663.592 1053.95 662.567 1054.9 662.225C1055.85 661.884 1057.11 662.225 1057.75 662.908C1061.23 666.666 1066.61 668.373 1072.31 668.032C1077.7 667.69 1082.76 664.958 1085.93 660.859C1089.09 656.761 1090.04 650.271 1087.19 647.539C1085.93 646.173 1085.61 644.123 1086.88 642.757C1088.14 641.391 1090.04 641.049 1091.31 642.416C1097.33 648.222 1095.74 658.81 1090.68 665.299Z" fill="#FCFEFF"/>
<path d="M630.702 691.767C642.093 691.767 653.167 689.035 662.66 683.57C675.632 704.405 696.832 718.75 720.246 722.165C723.726 722.507 727.207 722.848 730.687 722.848C750.305 722.848 769.922 714.993 784.793 701.331C802.512 725.922 832.254 740.951 863.895 740.951C886.36 740.951 907.243 733.437 923.38 719.433C934.77 734.12 953.122 743 973.056 743C993.306 743 1011.97 733.778 1023.36 718.408C1030.64 708.503 1044.25 707.137 1058.49 705.429C1067.03 704.405 1075.89 703.38 1083.48 700.648C1120.5 685.961 1150.88 652.83 1162.9 613.893C1172.39 582.47 1168.6 551.389 1151.83 524.065C1135.06 496.741 1105 480.005 1072.72 480.005C1055.64 480.005 1039.82 484.786 1026.53 494.008C1010.39 458.487 977.169 432.529 940.466 427.747C929.391 426.381 920.532 428.089 915.153 433.212C893.321 393.592 849.024 369 799.031 369C784.793 369 770.555 371.049 757.266 375.148C720.562 386.419 689.871 409.645 670.57 441.068C651.269 472.49 644.624 512.11 653.167 546.607C646.206 543.875 638.613 542.85 631.019 542.85C608.554 542.85 586.722 554.463 574.065 572.907C555.081 600.573 556.979 642.242 578.495 667.858C591.151 682.545 610.452 691.767 630.702 691.767ZM579.128 576.664C590.518 559.928 610.452 549.681 631.019 549.681C638.929 549.681 646.523 551.048 653.167 554.121C642.093 567.784 637.347 587.252 640.511 605.013C640.827 606.721 642.093 607.745 643.675 607.745C643.991 607.745 643.992 607.745 644.308 607.745C645.89 607.404 647.156 605.696 646.839 603.647C643.991 586.91 648.738 569.15 659.495 556.854C670.253 544.558 686.707 538.41 702.211 540.801C706.64 541.484 711.07 543.875 711.07 547.29C711.07 548.998 712.019 550.364 713.601 550.706C715.183 551.048 716.765 550.023 717.082 548.315C719.929 538.752 729.422 532.262 738.597 532.604C747.773 533.287 756.633 540.801 759.48 550.364C760.113 552.072 761.695 553.097 763.594 552.755C765.176 552.072 766.125 550.364 765.808 548.315C762.012 535.678 751.254 526.456 739.23 525.773C729.422 525.089 719.613 530.554 714.234 539.093C711.386 536.019 707.273 534.311 703.16 533.628C687.972 531.237 671.835 536.361 659.812 546.949C650.952 514.16 656.964 475.223 675.949 444.825C694.3 414.768 724.043 392.567 759.164 381.637C772.137 377.88 785.426 375.831 799.348 375.831C849.024 375.831 892.055 400.423 911.989 440.384C912.622 441.409 913.571 442.092 914.52 442.092C915.786 442.092 916.735 441.751 917.368 440.726C920.532 436.286 925.911 433.895 933.821 433.895C935.72 433.895 937.934 433.895 939.833 434.237C975.27 439.018 1007.86 464.635 1022.42 500.156C1022.73 501.181 1023.68 501.864 1024.63 502.205C1025.58 502.547 1026.53 502.205 1027.16 501.522C1039.82 491.617 1055.64 486.494 1072.72 486.494C1102.47 486.494 1131.26 502.547 1146.45 527.48C1166.06 559.586 1162.9 590.668 1156.57 611.161C1145.5 647.365 1116.07 679.813 1080.95 693.475C1074.31 696.207 1065.76 697.232 1057.54 697.915C1042.35 699.623 1026.84 701.331 1017.99 713.627C1007.86 727.289 991.091 735.486 972.739 735.486C953.438 735.486 936.036 726.606 926.227 711.919C925.594 711.236 924.962 710.553 924.012 710.553H923.696C923.063 710.553 922.114 710.894 921.481 711.236C906.294 725.239 885.727 733.095 863.579 733.095C834.469 733.095 806.942 719.433 790.488 697.232C790.488 697.232 790.805 697.232 790.805 697.574C796.5 699.623 802.512 700.648 807.891 700.648C813.903 700.648 819.598 699.281 824.66 696.89C826.242 696.207 826.875 694.158 826.242 692.45C825.61 690.742 823.711 690.059 822.129 690.742C813.903 694.841 803.461 694.841 793.02 691.084C783.211 687.669 774.035 681.521 765.176 675.714C763.594 674.69 761.695 675.373 760.746 676.739C759.797 678.447 760.43 680.496 761.695 681.521C768.023 685.961 774.668 690.401 781.945 693.816C768.023 707.137 749.672 714.993 730.687 714.993C727.523 714.993 724.359 714.651 721.195 714.31C698.73 711.236 678.48 696.89 666.456 676.056C665.507 674.348 663.609 674.006 662.027 675.031C652.851 680.837 642.093 683.911 630.386 683.911C612.034 683.911 594.315 675.714 582.608 662.052C563.624 639.851 562.042 601.939 579.128 576.664Z" fill="#F8FCFE"/>
<path d="M978.847 698.361C977.269 698.02 975.376 699.042 975.06 700.744C974.745 702.446 975.692 704.489 977.269 704.829L996.518 710.617C1000.62 711.638 1005.04 713 1010.09 713C1011.98 713 1014.19 712.66 1016.4 711.979C1021.13 710.617 1025.23 707.212 1028.7 704.489C1040.38 694.616 1051.42 684.743 1056.79 671.124C1061.21 674.189 1066.57 675.55 1072.25 675.21C1079.51 674.869 1086.14 671.465 1090.55 665.677C1095.6 659.209 1097.18 648.655 1090.87 642.867C1089.61 641.505 1087.4 641.846 1086.45 643.207C1085.19 644.569 1085.5 646.952 1086.77 647.974C1089.92 650.697 1088.66 657.506 1085.5 661.251C1082.35 665.337 1077.3 668.06 1071.94 668.401C1066.57 668.741 1061.21 667.039 1057.42 663.294C1056.47 662.613 1055.53 662.273 1054.58 662.613C1053.63 662.954 1052.69 663.635 1052.37 664.996C1048.58 678.955 1037.22 689.168 1024.92 699.382C1022.08 701.765 1018.61 704.829 1014.82 705.851C1009.77 707.553 1003.78 705.851 998.411 704.148L978.847 698.361Z" fill="#F8FCFE"/>
<path d="M941.238 506.769C947.874 503.018 956.406 503.359 963.043 507.45C969.679 511.542 973.787 519.724 974.104 527.907C974.104 529.27 974.736 530.293 975.684 530.634C976.632 531.316 977.896 531.316 978.844 530.634C983.9 527.566 991.169 529.611 995.277 534.725C999.385 539.498 1000.97 546.999 1000.02 554.84V555.181C999.069 555.181 998.121 555.863 997.489 556.545C996.541 558.25 996.857 560.295 998.437 561.318C999.069 562 1000.02 562 1000.97 562C1001.6 562 1002.23 562 1002.86 561.659C1005.07 560.636 1006.34 557.909 1006.65 555.522C1007.92 545.635 1005.71 536.43 1000.33 529.952C995.277 523.815 987.376 521.088 980.424 522.792C978.844 513.928 973.788 505.746 966.835 501.314C958.619 495.859 947.558 495.518 938.709 500.632C937.129 501.655 936.497 503.7 937.445 505.064C937.761 507.109 939.657 507.45 941.238 506.769Z" fill="#F8FCFE"/>
<path d="M815.993 416.861C825.556 414.105 836.075 416.517 845 422.718C853.925 429.263 859.982 438.909 861.576 449.244C861.894 450.966 863.169 452 864.763 452C864.763 452 865.082 452 865.401 452C866.995 451.656 868.27 449.933 867.951 448.211C866.357 435.809 859.026 424.44 848.506 417.206C837.987 409.627 825.556 407.215 814.399 410.316C812.805 410.66 811.53 412.727 812.168 414.45C812.486 416.172 814.399 417.206 815.993 416.861Z" fill="#F8FCFE"/>
<path d="M-279.609 488.401C-260.79 488.401 -243.917 494.893 -231.587 505.928C-228.991 507.875 -225.746 508.524 -223.151 506.577C-220.555 504.629 -219.906 501.384 -221.204 498.138C-230.289 481.261 -230.938 459.84 -223.151 439.718C-214.065 415.051 -193.299 393.63 -169.937 383.893C-129.702 367.665 -77.1371 376.753 -31.7108 407.262C-49.8813 417.648 -66.105 431.928 -77.1371 449.454C-84.2755 460.489 -88.8185 472.173 -94.0101 483.858C-119.319 479.314 -147.873 492.945 -159.554 516.962C-171.235 542.278 -164.096 574.734 -142.681 593.559C-141.383 594.857 -140.085 594.856 -138.787 594.856C-136.84 594.856 -134.894 594.208 -133.596 592.26C-131 589.664 -131.649 585.12 -134.245 583.172C-151.766 568.243 -157.607 542.278 -147.873 522.156C-138.138 502.033 -112.829 490.349 -92.0629 496.84C-88.8181 498.138 -85.5737 496.191 -84.2758 492.945C-79.0842 479.963 -73.8925 466.98 -66.7541 455.296C-38.8492 411.156 22.8007 390.385 71.4719 409.209C74.7166 410.507 78.6107 408.56 79.9086 405.314C81.2065 402.069 79.2594 398.174 76.0146 396.876C44.2161 384.542 7.87488 387.139 -22.6257 400.771C-22.6257 400.121 -22.6257 398.823 -22.6257 398.174C-36.2536 354.683 -3.80585 310.543 27.9926 285.228C72.1212 250.824 127.931 232 185.687 232C216.188 232 246.039 237.193 273.295 247.579C354.414 278.087 416.713 353.385 432.288 438.419C432.937 440.367 434.234 442.314 436.181 442.963C438.128 443.612 440.724 443.612 442.022 442.314C464.086 428.033 490.693 420.244 517.949 420.244C540.662 420.244 562.726 425.437 582.195 435.823C626.323 458.542 655.526 505.279 658.122 554.612C658.122 556.559 659.42 558.506 661.367 559.804C663.313 561.103 665.909 561.103 667.856 559.804C676.292 555.91 684.729 553.962 694.463 553.962C728.208 553.962 761.305 579.927 768.443 611.734C777.528 653.277 745.73 700.663 702.25 710.4C695.761 711.698 689.271 712.347 682.782 712.347C647.09 712.347 610.748 690.926 591.929 659.119C608.153 645.488 619.834 626.014 623.728 605.243C624.377 601.997 621.781 598.102 618.536 597.453C614.642 596.804 611.398 599.4 610.749 602.646C605.557 631.207 582.844 655.874 554.939 664.312C527.034 672.751 494.587 663.663 474.469 642.891C471.874 640.295 467.98 640.295 465.384 642.891C462.788 645.488 462.788 649.383 465.384 651.979C482.906 670.154 508.215 680.54 533.524 680.54C541.96 680.54 550.396 679.242 558.833 677.294C564.673 675.347 571.163 672.751 576.354 670.154C567.269 722.733 528.981 770.118 479.661 789.592C461.49 796.732 442.671 800.627 422.553 800.627C384.265 800.627 345.977 786.995 318.072 762.978C316.775 761.68 315.477 761.68 313.53 761.68C312.881 761.68 312.881 761.68 312.232 761.68C310.285 762.329 308.338 763.627 307.689 764.925C269.401 842.819 182.442 894.1 95.4831 890.854C12.4176 887.609 -66.754 833.083 -101.148 757.785C-97.2546 758.434 -93.3608 758.434 -88.8181 758.434C-70.6475 758.434 -52.4772 754.54 -36.2535 746.75C-33.0087 745.452 -31.7108 741.557 -33.0087 738.312C-34.3066 735.066 -38.2002 733.768 -41.4449 735.066C-76.4882 751.294 -119.319 748.049 -151.117 726.628C-154.362 724.68 -158.256 725.329 -160.202 728.575C-162.149 731.821 -161.5 735.715 -158.256 737.662C-149.17 744.154 -138.787 748.698 -128.404 752.592C-146.575 761.031 -166.692 766.224 -187.458 766.224C-212.118 766.224 -235.481 759.733 -255.598 748.048C-298.429 722.733 -324.387 672.102 -319.844 622.12C-319.844 619.523 -320.493 617.576 -322.44 616.278C-337.366 605.243 -347.749 587.716 -350.345 566.944C-352.941 546.822 -347.749 526.699 -336.068 512.419C-323.089 497.489 -302.323 488.401 -279.609 488.401ZM323.264 376.753C345.978 376.104 368.042 389.735 377.776 409.858C379.723 414.402 381.669 420.244 379.723 424.788C379.074 426.735 377.127 428.033 375.18 428.683C373.882 428.033 371.935 427.384 369.988 427.384C366.744 426.735 364.148 428.683 362.85 431.279C361.552 433.876 362.85 437.121 364.797 439.068C367.393 441.016 369.989 441.665 372.584 441.665C380.372 444.91 386.861 452.7 390.106 462.437C394 474.77 391.404 486.454 383.617 493.594C381.021 496.191 381.021 500.086 383.617 502.682C384.914 503.98 386.861 504.629 388.159 504.629C390.106 504.629 391.404 503.98 392.702 502.682C403.734 492.296 406.978 474.77 402.436 458.542C399.84 448.805 394 441.016 387.51 435.174C389.457 433.226 390.755 431.279 391.404 428.683C394.649 421.542 393.351 413.104 389.457 403.367C377.776 378.051 350.52 361.823 322.615 362.472C318.721 362.472 316.126 365.718 316.126 368.964C316.126 374.157 319.371 376.753 323.264 376.753Z" fill="white"/>
<path d="M-319.525 623.412C-319.525 620.818 -320.173 618.873 -322.118 617.576C-337.031 606.553 -347.406 589.046 -350 568.297C-350 567.648 -350 567.648 -350 567C-333.79 578.671 -311.095 582.562 -294.885 571.539C-292.94 608.498 -274.136 646.106 -242.364 663.613C-209.943 681.769 -163.906 675.285 -142.508 644.81C-107.494 694.089 -36.1688 697.331 23.485 688.901C64.3348 683.066 114.911 662.317 112.317 620.818C147.98 657.129 201.798 675.285 251.726 667.504C302.302 659.723 348.339 627.302 371.682 581.913C432.632 618.225 514.332 617.576 573.986 579.32C583.063 592.936 595.383 604.608 609 613.037C601.219 637.677 580.47 657.778 555.83 665.559C527.949 673.988 495.528 664.91 475.427 644.161C472.834 641.567 468.943 641.567 466.35 644.161C463.756 646.755 463.756 650.645 466.35 653.239C483.857 671.394 509.145 681.769 534.433 681.769C542.862 681.769 551.292 680.472 559.721 678.527C565.557 676.582 572.04 673.988 577.228 671.394C568.15 723.916 529.894 771.25 480.615 790.702C462.459 797.835 443.655 801.725 423.555 801.725C385.298 801.725 347.042 788.108 319.16 764.117C317.863 762.82 316.566 762.821 314.621 762.821C313.973 762.821 313.973 762.821 313.325 762.821C311.38 763.469 309.434 764.766 308.786 766.063C270.53 843.872 183.642 895.097 96.7553 891.855C13.7587 888.612 -65.3474 834.146 -99.7131 758.93C-95.8227 759.578 -91.9324 759.579 -87.3936 759.579C-69.238 759.579 -51.0823 755.688 -34.872 747.907C-31.63 746.61 -30.3331 742.72 -31.63 739.478C-32.9268 736.236 -36.8172 734.939 -40.0593 736.236C-75.0734 752.446 -117.869 749.204 -149.641 727.806C-152.883 725.861 -156.774 726.509 -158.719 729.751C-160.664 732.993 -160.015 736.884 -156.773 738.829C-147.695 745.313 -137.321 749.852 -126.946 753.743C-145.102 762.172 -165.203 767.359 -185.952 767.359C-210.591 767.359 -233.934 760.875 -254.035 749.204C-298.127 723.267 -324.063 673.34 -319.525 623.412Z" fill="#FCFEFF"/>
<path d="M702.398 712.052C695.904 713.35 689.41 714 682.916 714C647.199 714 610.833 692.571 592 660.753C604.988 650.364 614.729 636.078 619.924 620.493C666.032 643.87 725.776 641.922 768.637 614C777.079 656.208 745.259 702.311 702.398 712.052Z" fill="#FCFEFF"/>
<path d="M-279.789 476.06C-265.517 476.06 -251.894 479.305 -240.217 485.146C-243.46 469.569 -242.163 452.695 -235.675 435.821C-225.296 407.265 -202.59 383.252 -174.695 372.868C-134.474 356.642 -83.2247 363.132 -37.1652 389.093C-42.355 344.96 -10.5675 302.126 21.22 277.464C67.2795 241.119 126.313 221 187.294 221C219.73 221 250.22 226.841 279.413 237.874C361.801 269.027 426.024 343.662 444.837 429.331C467.543 417 492.843 410.51 520.089 410.51C544.741 410.51 569.392 416.351 590.152 427.384C635.562 450.749 666.701 497.477 671.891 548.099C679.676 545.503 687.461 544.205 695.894 544.205C736.115 544.205 774.39 574.06 782.174 611.702C792.554 661.026 757.523 714.245 706.274 725.927C699.138 727.874 691.353 728.523 683.568 728.523C647.888 728.523 611.56 709.702 589.503 680.497C577.826 735.662 537.605 784.338 485.707 805.106C466.245 812.894 445.486 816.788 423.43 816.788C385.155 816.788 346.88 803.808 317.039 781.093C276.169 856.378 191.835 907 105.554 907C102.311 907 99.0669 907 96.472 907C7.59662 903.106 -77.3862 844.047 -113.066 762.921C-135.123 775.252 -159.774 781.742 -186.372 781.742C-213.618 781.742 -239.568 774.603 -261.624 761.623C-307.684 734.364 -335.579 680.497 -332.335 627.278C-348.553 614.298 -359.582 594.179 -362.177 571.464C-365.42 547.451 -358.933 524.086 -345.31 507.212C-331.038 487.093 -306.386 476.06 -279.789 476.06ZM-350.5 568.868C-347.905 588.987 -337.525 607.159 -322.604 618.192C-320.658 619.49 -320.01 621.437 -320.01 624.033C-324.551 674.007 -298.602 723.98 -255.786 749.941C-235.675 762.272 -212.321 768.113 -187.669 768.113C-166.91 768.113 -146.151 763.57 -128.636 754.483C-139.015 751.238 -149.395 746.046 -158.477 739.556C-161.721 737.609 -162.369 733.716 -160.423 730.47C-158.477 727.225 -154.585 726.576 -151.341 728.523C-119.554 749.94 -76.0888 753.186 -41.7064 736.961C-38.4628 735.663 -34.5705 736.961 -33.273 740.206C-31.9756 743.451 -33.273 747.345 -36.5167 748.643C-52.7348 756.431 -70.8989 760.325 -89.0632 760.325C-92.9556 760.325 -96.8481 760.325 -101.389 759.676C-67.0067 834.961 12.1376 888.828 95.1744 892.722C182.752 896.616 269.033 844.695 307.308 766.815C307.956 764.868 309.903 763.57 311.849 763.57C312.497 763.57 312.498 763.57 313.146 763.57C314.444 763.57 316.39 764.219 317.687 764.868C345.582 788.881 383.209 802.51 422.132 802.51C442.243 802.51 461.704 798.616 479.22 791.477C529.172 771.358 566.798 724.629 575.88 672.06C570.041 675.305 564.203 677.901 558.364 679.199C549.931 681.795 541.497 682.444 533.064 682.444C507.764 682.444 482.463 672.06 464.948 653.887C462.353 651.291 462.353 647.398 464.948 644.802C467.543 642.206 471.435 642.206 474.03 644.802C494.141 666.219 526.577 674.656 554.472 666.219C582.367 657.782 605.073 633.119 610.262 604.563C610.911 601.318 614.155 598.722 618.047 599.371C621.291 600.02 623.886 603.265 623.237 607.159C619.344 627.927 607.667 647.398 591.449 661.027C610.262 692.828 645.942 714.245 682.271 714.245C688.758 714.245 695.245 713.596 701.732 712.298C745.197 702.563 776.985 655.186 767.902 613.649C760.766 581.848 727.681 555.888 693.948 555.888C684.217 555.888 675.135 557.835 667.35 561.729C665.404 563.027 662.809 562.378 660.863 561.729C658.917 560.431 657.619 558.483 657.619 556.536C655.673 507.212 625.832 460.483 581.718 437.768C562.257 428.033 540.2 422.192 517.495 422.192C490.248 422.192 463.002 429.98 441.594 444.258C439.648 445.556 437.701 445.557 435.755 444.908C433.809 444.259 432.512 442.311 431.863 440.364C416.294 355.345 354.016 280.06 272.925 249.556C245.679 239.172 215.837 233.98 185.347 233.98C127.611 233.98 71.1719 252.801 27.7073 287.199C-4.08026 312.51 -36.5168 356.642 -22.8936 400.126C-22.8936 400.775 -22.8936 402.073 -22.8936 402.722C7.5965 389.093 43.9252 386.497 75.7127 398.828C78.9563 400.126 80.9027 404.02 79.6053 407.265C78.3079 410.51 74.4152 412.457 71.1716 411.159C22.5172 392.338 -39.1116 413.106 -67.0068 457.238C-74.1428 468.921 -79.3327 481.901 -84.5225 494.881C-85.8199 498.126 -89.0632 499.424 -92.3069 498.775C-113.066 492.285 -138.367 503.967 -148.097 524.086C-157.828 544.205 -151.99 570.166 -134.474 585.093C-131.879 587.689 -131.231 591.583 -133.825 594.179C-135.123 595.477 -137.069 596.775 -139.015 596.775C-140.313 596.775 -142.259 596.126 -142.908 595.477C-164.316 577.305 -172.1 544.205 -159.774 518.894C-148.097 494.881 -120.202 480.603 -94.2534 485.795C-89.7123 474.113 -84.5222 462.431 -77.3862 451.398C-66.3579 433.225 -50.1398 418.947 -31.9755 409.212C-77.3862 379.358 -129.933 370.272 -170.154 385.848C-193.508 394.934 -214.267 416.351 -223.349 441.662C-231.134 462.431 -230.485 483.199 -221.403 500.073C-220.106 502.669 -220.755 506.563 -223.349 508.51C-225.944 510.457 -229.188 510.457 -231.783 507.861C-244.109 496.828 -260.976 490.338 -279.789 490.338C-302.494 490.338 -323.253 499.424 -336.228 515.649C-347.905 528.629 -353.095 548.099 -350.5 568.868Z" fill="#F8FCFE"/>
<path d="M321.937 364.07C349.832 362.774 377.077 379.624 388.754 404.899C393.295 414.62 393.944 423.045 390.701 430.174C390.052 432.767 388.106 434.711 386.808 436.655C393.295 442.488 399.133 450.265 401.728 459.986C406.918 476.836 403.026 493.686 391.998 504.055C390.7 505.352 389.403 506 387.457 506C385.511 506 384.213 505.352 382.916 504.055C380.321 501.463 380.321 497.575 382.916 494.983C390.052 487.854 392.647 475.54 389.403 463.875C386.16 454.153 380.321 446.376 371.888 443.136C369.293 443.136 366.698 441.84 364.103 440.543C361.509 438.599 360.86 435.359 362.157 432.766C363.455 430.174 366.049 428.23 369.293 428.878C371.239 429.526 372.537 429.526 374.483 430.174C376.429 429.526 378.375 428.23 379.024 426.286C380.97 421.749 379.024 415.916 377.077 411.38C367.347 390.641 345.291 377.032 322.586 378.328C318.694 378.328 316.099 375.735 316.099 371.847C315.451 367.31 318.045 364.07 321.937 364.07Z" fill="#F8FCFE"/>
<g clip-path="url(#clip1_3_664)">
<path d="M524.181 545.456C524.181 545.456 517.578 548.851 514.355 551.163C511.458 553.24 508.102 556.87 508.102 556.87C508.102 556.87 504.776 553.255 501.849 551.163C498.648 548.875 492.023 545.456 492.023 545.456" stroke="#C1E3F8" stroke-width="2" stroke-linecap="round"/>
<path d="M573.974 503.948C573.974 503.948 567.371 507.344 564.148 509.655C561.251 511.733 557.895 515.363 557.895 515.363C557.895 515.363 554.569 511.748 551.642 509.655C548.441 507.368 541.816 503.948 541.816 503.948" stroke="#C1E3F8" stroke-width="2" stroke-linecap="round"/>
<path d="M535.592 526.777C535.592 526.777 528.989 530.173 525.766 532.484C522.869 534.562 519.513 538.192 519.513 538.192C519.513 538.192 516.188 534.577 513.26 532.484C510.059 530.197 503.434 526.777 503.434 526.777" stroke="#C1E3F8" stroke-width="2" stroke-linecap="round"/>
<path d="M480.612 529.89C480.612 529.89 476.992 531.742 475.224 533.003C473.635 534.136 471.795 536.116 471.795 536.116C471.795 536.116 469.971 534.144 468.366 533.003C466.611 531.755 462.977 529.89 462.977 529.89" stroke="#C1E3F8" stroke-width="2" stroke-linecap="round"/>
<path d="M484.761 520.551C484.761 520.551 482.418 521.786 481.274 522.627C480.246 523.382 479.055 524.702 479.055 524.702C479.055 524.702 477.875 523.388 476.837 522.627C475.701 521.795 473.35 520.551 473.35 520.551" stroke="#C1E3F8" stroke-width="2" stroke-linecap="round"/>
<path d="M512.771 515.363C512.771 515.363 510.854 516.288 509.918 516.919C509.077 517.485 508.102 518.475 508.102 518.475C508.102 518.475 507.137 517.489 506.287 516.919C505.358 516.295 503.434 515.363 503.434 515.363" stroke="#C1E3F8" stroke-width="2" stroke-linecap="round"/>
</g>
<g clip-path="url(#clip2_3_664)">
<path d="M1107.14 187.093C1107.14 187.093 1094.83 193.426 1088.82 197.737C1083.41 201.611 1077.16 208.38 1077.16 208.38C1077.16 208.38 1070.95 201.639 1065.49 197.737C1059.53 193.471 1047.17 187.093 1047.17 187.093" stroke="#C1E3F8" stroke-linecap="round"/>
<path d="M1200 109.687C1200 109.687 1187.69 116.02 1181.68 120.33C1176.28 124.204 1170.02 130.974 1170.02 130.974C1170.02 130.974 1163.82 124.233 1158.36 120.33C1152.39 116.064 1140.03 109.687 1140.03 109.687" stroke="#C1E3F8" stroke-linecap="round"/>
<path d="M1128.42 152.261C1128.42 152.261 1116.11 158.593 1110.1 162.904C1104.7 166.778 1098.44 173.548 1098.44 173.548C1098.44 173.548 1092.24 166.807 1086.78 162.904C1080.81 158.638 1068.45 152.261 1068.45 152.261" stroke="#C1E3F8" stroke-linecap="round"/>
<path d="M1025.89 158.066C1025.89 158.066 1019.14 161.52 1015.84 163.871C1012.88 165.984 1009.44 169.677 1009.44 169.677C1009.44 169.677 1006.04 166 1003.05 163.871C999.776 161.544 993 158.066 993 158.066" stroke="#C1E3F8" stroke-linecap="round"/>
<path d="M1033.63 140.65C1033.63 140.65 1029.26 142.952 1027.13 144.519C1025.21 145.928 1022.99 148.389 1022.99 148.389C1022.99 148.389 1020.79 145.938 1018.85 144.519C1016.73 142.969 1012.35 140.65 1012.35 140.65" stroke="#C1E3F8" stroke-linecap="round"/>
<path d="M1085.87 130.974C1085.87 130.974 1082.29 132.7 1080.55 133.876C1078.98 134.932 1077.16 136.778 1077.16 136.778C1077.16 136.778 1075.36 134.94 1073.77 133.876C1072.04 132.713 1068.45 130.974 1068.45 130.974" stroke="#C1E3F8" stroke-linecap="round"/>
</g>
<g clip-path="url(#clip3_3_664)">
<path d="M1139.27 385.621C1140.7 385.621 1141.98 386.123 1142.91 386.976C1143.11 387.126 1143.35 387.176 1143.55 387.026C1143.75 386.875 1143.8 386.625 1143.7 386.374C1143.01 385.07 1142.96 383.415 1143.55 381.86C1144.24 379.954 1145.81 378.299 1147.59 377.546C1150.64 376.292 1154.62 376.995 1158.07 379.352C1156.69 380.154 1155.46 381.258 1154.62 382.612C1154.08 383.465 1153.74 384.368 1153.34 385.27C1151.42 384.919 1149.26 385.973 1148.37 387.828C1147.49 389.784 1148.03 392.292 1149.65 393.747C1149.75 393.847 1149.85 393.847 1149.95 393.847C1150.1 393.847 1150.24 393.797 1150.34 393.647C1150.54 393.446 1150.49 393.095 1150.29 392.944C1148.96 391.791 1148.52 389.784 1149.26 388.23C1150 386.675 1151.92 385.772 1153.49 386.273C1153.74 386.374 1153.98 386.223 1154.08 385.973C1154.47 384.969 1154.87 383.966 1155.41 383.063C1157.53 379.653 1162.2 378.048 1165.89 379.502C1166.14 379.603 1166.43 379.452 1166.53 379.201C1166.63 378.951 1166.48 378.65 1166.23 378.549C1163.82 377.596 1161.07 377.797 1158.76 378.85C1158.76 378.8 1158.76 378.7 1158.76 378.65C1157.72 375.289 1160.18 371.879 1162.59 369.922C1165.94 367.264 1170.17 365.81 1174.55 365.81C1176.86 365.81 1179.13 366.211 1181.19 367.013C1187.34 369.371 1192.07 375.189 1193.25 381.759C1193.3 381.91 1193.4 382.06 1193.54 382.11C1193.69 382.161 1193.89 382.161 1193.99 382.06C1195.66 380.957 1197.68 380.355 1199.74 380.355C1201.46 380.355 1203.14 380.756 1204.61 381.559C1207.96 383.314 1210.17 386.926 1210.37 390.737C1210.37 390.888 1210.47 391.038 1210.62 391.139C1210.76 391.239 1210.96 391.239 1211.11 391.139C1211.75 390.838 1212.39 390.687 1213.13 390.687C1215.68 390.687 1218.19 392.694 1218.74 395.151C1219.42 398.361 1217.01 402.023 1213.72 402.775C1213.22 402.875 1212.73 402.925 1212.24 402.925C1209.53 402.925 1206.78 401.27 1205.35 398.813C1206.58 397.759 1207.47 396.255 1207.76 394.65C1207.81 394.399 1207.62 394.098 1207.37 394.048C1207.07 393.998 1206.83 394.198 1206.78 394.449C1206.39 396.656 1204.66 398.562 1202.55 399.214C1200.43 399.866 1197.97 399.164 1196.45 397.559C1196.25 397.358 1195.95 397.358 1195.76 397.559C1195.56 397.759 1195.56 398.06 1195.76 398.261C1197.09 399.665 1199 400.468 1200.92 400.468C1201.56 400.468 1202.2 400.367 1202.84 400.217C1203.29 400.067 1203.78 399.866 1204.17 399.665C1203.48 403.728 1200.58 407.389 1196.84 408.894C1195.46 409.446 1194.04 409.747 1192.51 409.747C1189.61 409.747 1186.7 408.693 1184.59 406.838C1184.49 406.737 1184.39 406.737 1184.24 406.737C1184.19 406.737 1184.19 406.737 1184.14 406.737C1184 406.788 1183.85 406.888 1183.8 406.988C1180.9 413.007 1174.3 416.969 1167.71 416.719C1161.41 416.468 1155.41 412.255 1152.8 406.436C1153.1 406.487 1153.39 406.487 1153.74 406.487C1155.11 406.487 1156.49 406.186 1157.72 405.584C1157.97 405.483 1158.07 405.183 1157.97 404.932C1157.87 404.681 1157.57 404.581 1157.33 404.681C1154.67 405.935 1151.42 405.684 1149.01 404.029C1148.77 403.878 1148.47 403.929 1148.32 404.179C1148.18 404.43 1148.23 404.731 1148.47 404.882C1149.16 405.383 1149.95 405.734 1150.74 406.035C1149.36 406.687 1147.83 407.088 1146.26 407.088C1144.39 407.088 1142.62 406.587 1141.09 405.684C1137.84 403.728 1135.88 399.816 1136.22 395.954C1136.22 395.753 1136.17 395.603 1136.02 395.502C1134.89 394.65 1134.1 393.295 1133.91 391.69C1133.71 390.136 1134.1 388.581 1134.99 387.477C1135.97 386.324 1137.55 385.621 1139.27 385.621ZM1184.98 376.994C1186.7 376.944 1188.38 377.998 1189.11 379.552C1189.26 379.904 1189.41 380.355 1189.26 380.706C1189.21 380.857 1189.07 380.957 1188.92 381.007C1188.82 380.957 1188.67 380.907 1188.52 380.907C1188.28 380.857 1188.08 381.007 1187.98 381.208C1187.88 381.408 1187.98 381.659 1188.13 381.81C1188.33 381.96 1188.52 382.01 1188.72 382.01C1189.31 382.261 1189.8 382.863 1190.05 383.615C1190.34 384.568 1190.15 385.471 1189.56 386.023C1189.36 386.223 1189.36 386.524 1189.56 386.725C1189.66 386.825 1189.8 386.875 1189.9 386.875C1190.05 386.875 1190.15 386.825 1190.25 386.725C1191.08 385.922 1191.33 384.568 1190.98 383.314C1190.79 382.562 1190.34 381.96 1189.85 381.509C1190 381.358 1190.1 381.208 1190.15 381.007C1190.39 380.455 1190.3 379.803 1190 379.051C1189.11 377.095 1187.05 375.841 1184.93 375.891C1184.64 375.891 1184.44 376.142 1184.44 376.393C1184.44 376.794 1184.69 376.994 1184.98 376.994Z" fill="white"/>
<path d="M1136.22 396.004C1136.22 395.803 1136.17 395.653 1136.02 395.552C1134.89 394.7 1134.1 393.345 1133.91 391.74C1133.91 391.69 1133.91 391.69 1133.91 391.64C1135.14 392.543 1136.86 392.844 1138.09 391.991C1138.24 394.85 1139.66 397.759 1142.07 399.113C1144.54 400.518 1148.03 400.016 1149.65 397.659C1152.31 401.471 1157.72 401.722 1162.25 401.07C1165.35 400.618 1169.19 399.013 1168.99 395.803C1171.7 398.612 1175.78 400.016 1179.57 399.414C1183.41 398.813 1186.9 396.305 1188.67 392.794C1193.3 395.602 1199.5 395.552 1204.02 392.593C1204.71 393.646 1205.65 394.549 1206.68 395.201C1206.09 397.107 1204.52 398.662 1202.65 399.264C1200.53 399.916 1198.07 399.214 1196.54 397.609C1196.35 397.408 1196.05 397.408 1195.86 397.609C1195.66 397.809 1195.66 398.11 1195.86 398.311C1197.18 399.715 1199.1 400.518 1201.02 400.518C1201.66 400.518 1202.3 400.418 1202.94 400.267C1203.38 400.117 1203.88 399.916 1204.27 399.715C1203.58 403.778 1200.68 407.439 1196.94 408.944C1195.56 409.496 1194.13 409.797 1192.61 409.797C1189.7 409.797 1186.8 408.743 1184.69 406.888C1184.59 406.787 1184.49 406.787 1184.34 406.787C1184.29 406.787 1184.29 406.787 1184.24 406.787C1184.1 406.838 1183.95 406.938 1183.9 407.038C1181 413.057 1174.4 417.019 1167.81 416.769C1161.51 416.518 1155.51 412.305 1152.9 406.486C1153.2 406.537 1153.49 406.537 1153.83 406.537C1155.21 406.537 1156.59 406.236 1157.82 405.634C1158.07 405.533 1158.16 405.233 1158.07 404.982C1157.97 404.731 1157.67 404.631 1157.43 404.731C1154.77 405.985 1151.52 405.734 1149.11 404.079C1148.87 403.928 1148.57 403.979 1148.42 404.229C1148.27 404.48 1148.32 404.781 1148.57 404.932C1149.26 405.433 1150.05 405.784 1150.83 406.085C1149.46 406.737 1147.93 407.138 1146.36 407.138C1144.49 407.138 1142.71 406.637 1141.19 405.734C1137.84 403.728 1135.88 399.866 1136.22 396.004Z" fill="#EAF7FD"/>
<path d="M1213.77 402.875C1213.27 402.975 1212.78 403.026 1212.29 403.026C1209.58 403.026 1206.83 401.37 1205.4 398.913C1206.38 398.11 1207.12 397.007 1207.52 395.803C1211.01 397.609 1215.54 397.458 1218.78 395.302C1219.42 398.562 1217.01 402.123 1213.77 402.875Z" fill="#EAF7FD"/>
<path d="M1139.27 384.618C1140.35 384.618 1141.39 384.869 1142.27 385.32C1142.03 384.117 1142.12 382.813 1142.62 381.509C1143.4 379.302 1145.13 377.446 1147.24 376.643C1150.29 375.389 1154.18 375.891 1157.67 377.897C1157.28 374.487 1159.69 371.176 1162.1 369.27C1165.6 366.462 1170.07 364.907 1174.7 364.907C1177.16 364.907 1179.47 365.358 1181.69 366.211C1187.93 368.618 1192.81 374.386 1194.23 381.007C1195.95 380.054 1197.87 379.552 1199.94 379.552C1201.81 379.552 1203.68 380.004 1205.25 380.857C1208.7 382.662 1211.06 386.273 1211.45 390.186C1212.04 389.985 1212.63 389.885 1213.27 389.885C1216.33 389.885 1219.23 392.192 1219.82 395.101C1220.61 398.913 1217.95 403.026 1214.06 403.929C1213.52 404.079 1212.93 404.129 1212.34 404.129C1209.63 404.129 1206.88 402.675 1205.2 400.418C1204.32 404.681 1201.27 408.443 1197.33 410.048C1195.86 410.65 1194.28 410.951 1192.61 410.951C1189.71 410.951 1186.8 409.947 1184.54 408.192C1181.44 414.01 1175.04 417.922 1168.5 417.922C1168.25 417.922 1168.01 417.922 1167.81 417.922C1161.07 417.621 1154.62 413.057 1151.92 406.788C1150.24 407.741 1148.37 408.242 1146.36 408.242C1144.29 408.242 1142.32 407.69 1140.65 406.687C1137.15 404.581 1135.04 400.418 1135.29 396.305C1134.06 395.302 1133.22 393.747 1133.02 391.991C1132.78 390.136 1133.27 388.33 1134.3 387.026C1135.38 385.471 1137.25 384.618 1139.27 384.618ZM1133.91 391.791C1134.1 393.346 1134.89 394.75 1136.02 395.603C1136.17 395.703 1136.22 395.853 1136.22 396.054C1135.88 399.916 1137.84 403.778 1141.09 405.784C1142.62 406.737 1144.39 407.189 1146.26 407.189C1147.83 407.189 1149.41 406.838 1150.74 406.135C1149.95 405.885 1149.16 405.483 1148.47 404.982C1148.23 404.831 1148.18 404.531 1148.32 404.28C1148.47 404.029 1148.77 403.979 1149.01 404.129C1151.42 405.784 1154.72 406.035 1157.33 404.781C1157.57 404.681 1157.87 404.781 1157.97 405.032C1158.07 405.283 1157.97 405.584 1157.72 405.684C1156.49 406.286 1155.11 406.587 1153.74 406.587C1153.44 406.587 1153.15 406.587 1152.8 406.537C1155.41 412.355 1161.41 416.518 1167.71 416.819C1174.35 417.12 1180.9 413.107 1183.8 407.088C1183.85 406.938 1184 406.838 1184.15 406.838C1184.19 406.838 1184.19 406.838 1184.24 406.838C1184.34 406.838 1184.49 406.888 1184.59 406.938C1186.7 408.794 1189.56 409.847 1192.51 409.847C1194.04 409.847 1195.51 409.546 1196.84 408.994C1200.63 407.44 1203.48 403.828 1204.17 399.766C1203.73 400.016 1203.29 400.217 1202.84 400.317C1202.2 400.518 1201.56 400.568 1200.92 400.568C1199.01 400.568 1197.09 399.766 1195.76 398.361C1195.56 398.161 1195.56 397.86 1195.76 397.659C1195.95 397.458 1196.25 397.458 1196.45 397.659C1197.97 399.314 1200.43 399.966 1202.55 399.314C1204.66 398.662 1206.39 396.756 1206.78 394.549C1206.83 394.299 1207.07 394.098 1207.37 394.148C1207.62 394.198 1207.81 394.449 1207.76 394.75C1207.47 396.355 1206.58 397.86 1205.35 398.913C1206.78 401.371 1209.49 403.026 1212.24 403.026C1212.73 403.026 1213.23 402.976 1213.72 402.875C1217.01 402.123 1219.42 398.462 1218.74 395.252C1218.19 392.794 1215.69 390.788 1213.13 390.788C1212.39 390.788 1211.7 390.938 1211.11 391.239C1210.96 391.339 1210.76 391.289 1210.62 391.239C1210.47 391.139 1210.37 390.988 1210.37 390.838C1210.22 387.026 1207.96 383.415 1204.61 381.659C1203.14 380.907 1201.47 380.455 1199.74 380.455C1197.68 380.455 1195.61 381.057 1193.99 382.161C1193.84 382.261 1193.69 382.261 1193.54 382.211C1193.4 382.161 1193.3 382.01 1193.25 381.86C1192.07 375.289 1187.34 369.471 1181.19 367.114C1179.13 366.311 1176.86 365.91 1174.55 365.91C1170.17 365.91 1165.89 367.364 1162.59 370.023C1160.18 371.979 1157.72 375.389 1158.76 378.75C1158.76 378.8 1158.76 378.9 1158.76 378.951C1161.07 377.897 1163.82 377.697 1166.23 378.65C1166.48 378.75 1166.63 379.051 1166.53 379.302C1166.43 379.552 1166.14 379.703 1165.89 379.603C1162.2 378.148 1157.53 379.753 1155.41 383.164C1154.87 384.067 1154.47 385.07 1154.08 386.073C1153.98 386.324 1153.74 386.424 1153.49 386.374C1151.92 385.872 1150 386.775 1149.26 388.33C1148.52 389.885 1148.96 391.891 1150.29 393.045C1150.49 393.245 1150.54 393.546 1150.34 393.747C1150.24 393.847 1150.1 393.947 1149.95 393.947C1149.85 393.947 1149.7 393.897 1149.65 393.847C1148.03 392.443 1147.44 389.885 1148.37 387.929C1149.26 386.073 1151.38 384.969 1153.34 385.371C1153.69 384.468 1154.08 383.565 1154.62 382.712C1155.46 381.308 1156.69 380.205 1158.07 379.452C1154.62 377.145 1150.64 376.443 1147.59 377.647C1145.81 378.349 1144.24 380.004 1143.55 381.96C1142.96 383.565 1143.01 385.17 1143.7 386.474C1143.8 386.675 1143.75 386.976 1143.55 387.126C1143.35 387.277 1143.11 387.277 1142.91 387.076C1141.98 386.223 1140.7 385.722 1139.27 385.722C1137.55 385.722 1135.97 386.424 1134.99 387.678C1134.1 388.681 1133.71 390.186 1133.91 391.791Z" fill="#C1E3F8"/>
<path d="M1184.93 375.991C1187.05 375.891 1189.12 377.195 1190 379.151C1190.35 379.904 1190.39 380.556 1190.15 381.107C1190.1 381.308 1189.95 381.458 1189.85 381.609C1190.35 382.06 1190.79 382.662 1190.98 383.415C1191.38 384.719 1191.08 386.023 1190.25 386.825C1190.15 386.926 1190.05 386.976 1189.9 386.976C1189.75 386.976 1189.66 386.926 1189.56 386.825C1189.36 386.625 1189.36 386.324 1189.56 386.123C1190.1 385.571 1190.3 384.618 1190.05 383.716C1189.8 382.963 1189.36 382.361 1188.72 382.11C1188.52 382.11 1188.33 382.01 1188.13 381.91C1187.93 381.759 1187.89 381.509 1187.98 381.308C1188.08 381.107 1188.28 380.957 1188.52 381.007C1188.67 381.057 1188.77 381.057 1188.92 381.107C1189.07 381.057 1189.21 380.957 1189.26 380.806C1189.41 380.455 1189.26 380.004 1189.12 379.653C1188.38 378.048 1186.7 376.995 1184.98 377.095C1184.69 377.095 1184.49 376.894 1184.49 376.593C1184.44 376.242 1184.64 375.991 1184.93 375.991Z" fill="#C1E3F8"/>
</g>
<g clip-path="url(#clip4_3_664)">
<path d="M1405.32 118.231C1408.79 118.231 1411.89 119.35 1414.16 121.253C1414.64 121.589 1415.24 121.701 1415.71 121.365C1416.19 121.029 1416.31 120.469 1416.07 119.91C1414.4 116.999 1414.28 113.305 1415.71 109.835C1417.39 105.582 1421.21 101.888 1425.51 100.208C1432.91 97.4099 1442.59 98.9771 1450.95 104.238C1447.61 106.029 1444.62 108.492 1442.59 111.514C1441.27 113.417 1440.44 115.432 1439.48 117.447C1434.82 116.664 1429.57 119.014 1427.42 123.156C1425.27 127.522 1426.58 133.119 1430.52 136.365C1430.76 136.589 1431 136.589 1431.24 136.589C1431.6 136.589 1431.96 136.477 1432.2 136.141C1432.67 135.693 1432.56 134.91 1432.08 134.574C1428.85 131.999 1427.78 127.522 1429.57 124.052C1431.36 120.581 1436.02 118.567 1439.84 119.686C1440.44 119.91 1441.04 119.574 1441.27 119.014C1442.23 116.776 1443.19 114.537 1444.5 112.522C1449.64 104.91 1460.98 101.328 1469.94 104.574C1470.54 104.798 1471.26 104.462 1471.49 103.902C1471.73 103.343 1471.38 102.671 1470.78 102.447C1464.93 100.32 1458.24 100.768 1452.62 103.119C1452.62 103.007 1452.62 102.783 1452.62 102.671C1450.11 95.1712 1456.09 87.5593 1461.94 83.1937C1470.06 77.2609 1480.33 74.0146 1490.96 74.0146C1496.58 74.0146 1502.07 74.9102 1507.09 76.7012C1522.02 81.9623 1533.49 94.9473 1536.35 109.611C1536.47 109.947 1536.71 110.283 1537.07 110.395C1537.43 110.507 1537.91 110.507 1538.15 110.283C1542.21 107.82 1547.1 106.477 1552.12 106.477C1556.3 106.477 1560.36 107.373 1563.95 109.164C1572.07 113.081 1577.44 121.141 1577.92 129.649C1577.92 129.984 1578.16 130.32 1578.52 130.544C1578.88 130.768 1579.35 130.768 1579.71 130.544C1581.27 129.872 1582.82 129.537 1584.61 129.537C1590.82 129.537 1596.91 134.014 1598.23 139.499C1599.9 146.663 1594.05 154.835 1586.04 156.514C1584.85 156.738 1583.65 156.85 1582.46 156.85C1575.89 156.85 1569.2 153.156 1565.74 147.671C1568.72 145.32 1570.87 141.962 1571.59 138.38C1571.71 137.82 1571.23 137.148 1570.64 137.037C1569.92 136.925 1569.32 137.372 1569.2 137.932C1568.25 142.857 1564.07 147.111 1558.93 148.566C1553.79 150.021 1547.82 148.454 1544.12 144.872C1543.64 144.425 1542.92 144.425 1542.45 144.872C1541.97 145.32 1541.97 145.992 1542.45 146.439C1545.67 149.574 1550.33 151.365 1554.99 151.365C1556.54 151.365 1558.09 151.141 1559.65 150.805C1560.72 150.469 1561.92 150.021 1562.87 149.574C1561.2 158.641 1554.15 166.812 1545.07 170.171C1541.73 171.402 1538.27 172.074 1534.56 172.074C1527.52 172.074 1520.47 169.723 1515.33 165.581C1515.09 165.357 1514.85 165.357 1514.5 165.357C1514.38 165.357 1514.38 165.357 1514.26 165.357C1513.9 165.469 1513.54 165.693 1513.42 165.917C1506.37 179.35 1490.37 188.193 1474.36 187.633C1459.07 187.073 1444.5 177.671 1438.17 164.686C1438.89 164.797 1439.6 164.797 1440.44 164.797C1443.78 164.797 1447.13 164.126 1450.11 162.783C1450.71 162.559 1450.95 161.887 1450.71 161.327C1450.47 160.768 1449.76 160.544 1449.16 160.768C1442.71 163.566 1434.82 163.006 1428.97 159.312C1428.37 158.977 1427.66 159.089 1427.3 159.648C1426.94 160.208 1427.06 160.88 1427.66 161.215C1429.33 162.335 1431.24 163.118 1433.15 163.79C1429.81 165.245 1426.11 166.141 1422.28 166.141C1417.74 166.141 1413.44 165.021 1409.74 163.006C1401.86 158.641 1397.08 149.91 1397.92 141.29C1397.92 140.842 1397.8 140.507 1397.44 140.283C1394.69 138.38 1392.78 135.357 1392.3 131.775C1391.82 128.305 1392.78 124.835 1394.93 122.372C1397.32 119.798 1401.14 118.231 1405.32 118.231ZM1516.29 98.9771C1520.47 98.8652 1524.53 101.216 1526.32 104.686C1526.68 105.47 1527.04 106.477 1526.68 107.261C1526.56 107.596 1526.2 107.82 1525.84 107.932C1525.6 107.82 1525.25 107.708 1524.89 107.708C1524.29 107.596 1523.81 107.932 1523.57 108.38C1523.33 108.828 1523.57 109.387 1523.93 109.723C1524.41 110.059 1524.89 110.171 1525.36 110.171C1526.8 110.731 1527.99 112.074 1528.59 113.753C1529.31 115.88 1528.83 117.895 1527.4 119.126C1526.92 119.574 1526.92 120.246 1527.4 120.693C1527.63 120.917 1527.99 121.029 1528.23 121.029C1528.59 121.029 1528.83 120.917 1529.07 120.693C1531.1 118.902 1531.7 115.88 1530.86 113.081C1530.38 111.402 1529.31 110.059 1528.11 109.052C1528.47 108.716 1528.71 108.38 1528.83 107.932C1529.43 106.701 1529.19 105.246 1528.47 103.567C1526.32 99.201 1521.3 96.4025 1516.17 96.5144C1515.45 96.5144 1514.97 97.0741 1514.97 97.6338C1514.97 98.5293 1515.57 98.9771 1516.29 98.9771Z" fill="white"/>
<path d="M1397.91 141.402C1397.91 140.954 1397.79 140.618 1397.44 140.395C1394.69 138.492 1392.78 135.469 1392.3 131.887C1392.3 131.775 1392.3 131.775 1392.3 131.663C1395.29 133.678 1399.47 134.35 1402.45 132.447C1402.81 138.827 1406.28 145.32 1412.13 148.342C1418.1 151.477 1426.58 150.357 1430.52 145.096C1436.97 153.603 1450.11 154.163 1461.1 152.708C1468.63 151.7 1477.94 148.118 1477.47 140.954C1484.03 147.223 1493.95 150.357 1503.15 149.014C1512.46 147.671 1520.94 142.074 1525.24 134.238C1536.47 140.507 1551.52 140.395 1562.51 133.79C1564.18 136.141 1566.45 138.156 1568.96 139.611C1567.53 143.865 1563.71 147.335 1559.17 148.678C1554.03 150.133 1548.06 148.566 1544.36 144.984C1543.88 144.536 1543.16 144.536 1542.68 144.984C1542.2 145.432 1542.2 146.103 1542.68 146.551C1545.91 149.686 1550.57 151.477 1555.22 151.477C1556.78 151.477 1558.33 151.253 1559.88 150.917C1560.96 150.581 1562.15 150.133 1563.11 149.686C1561.44 158.753 1554.39 166.924 1545.31 170.282C1541.97 171.514 1538.5 172.185 1534.8 172.185C1527.75 172.185 1520.7 169.835 1515.57 165.693C1515.33 165.469 1515.09 165.469 1514.73 165.469C1514.61 165.469 1514.61 165.469 1514.49 165.469C1514.14 165.581 1513.78 165.805 1513.66 166.029C1506.61 179.461 1490.6 188.305 1474.6 187.745C1459.31 187.185 1444.74 177.782 1438.41 164.797C1439.12 164.909 1439.84 164.909 1440.68 164.909C1444.02 164.909 1447.36 164.238 1450.35 162.894C1450.95 162.671 1451.19 161.999 1450.95 161.439C1450.71 160.879 1449.99 160.656 1449.4 160.879C1442.95 163.678 1435.06 163.118 1429.21 159.424C1428.61 159.088 1427.9 159.2 1427.54 159.76C1427.18 160.32 1427.3 160.991 1427.9 161.327C1429.57 162.447 1431.48 163.23 1433.39 163.902C1430.05 165.357 1426.34 166.253 1422.52 166.253C1417.98 166.253 1413.68 165.133 1409.98 163.118C1401.86 158.641 1397.08 150.021 1397.91 141.402Z" fill="#EAF7FD"/>
<path d="M1586.16 156.737C1584.97 156.961 1583.77 157.073 1582.58 157.073C1576.01 157.073 1569.32 153.379 1565.86 147.894C1568.24 146.103 1570.04 143.64 1570.99 140.954C1579.47 144.984 1590.46 144.648 1598.35 139.834C1599.9 147.111 1594.05 155.058 1586.16 156.737Z" fill="#EAF7FD"/>
<path d="M1405.32 115.992C1407.95 115.992 1410.46 116.552 1412.61 117.559C1412.01 114.873 1412.25 111.962 1413.44 109.052C1415.36 104.127 1419.54 99.9848 1424.67 98.1938C1432.08 95.3953 1441.51 96.5147 1449.99 100.992C1449.04 93.3804 1454.89 85.9924 1460.74 81.7387C1469.23 75.4701 1480.1 72 1491.32 72C1497.3 72 1502.91 73.0075 1508.28 74.9104C1523.45 80.2835 1535.28 93.1566 1538.74 107.933C1542.92 105.806 1547.58 104.686 1552.6 104.686C1557.14 104.686 1561.68 105.694 1565.5 107.597C1573.86 111.627 1579.59 119.686 1580.55 128.417C1581.98 127.97 1583.42 127.746 1584.97 127.746C1592.37 127.746 1599.42 132.895 1600.86 139.387C1602.77 147.895 1596.32 157.074 1586.88 159.089C1585.57 159.425 1584.13 159.537 1582.7 159.537C1576.13 159.537 1569.44 156.29 1565.38 151.253C1563.23 160.768 1555.82 169.163 1546.27 172.745C1542.68 174.089 1538.86 174.76 1534.8 174.76C1527.75 174.76 1520.71 172.522 1515.21 168.604C1507.69 181.589 1492.16 190.32 1476.27 190.32C1475.68 190.32 1475.08 190.32 1474.6 190.32C1458.24 189.648 1442.59 179.462 1436.02 165.469C1431.96 167.596 1427.42 168.716 1422.52 168.716C1417.51 168.716 1412.73 167.484 1408.67 165.246C1400.19 160.544 1395.05 151.253 1395.65 142.074C1392.66 139.835 1390.63 136.365 1390.15 132.447C1389.56 128.306 1390.75 124.276 1393.26 121.365C1395.89 117.895 1400.42 115.992 1405.32 115.992ZM1392.3 132C1392.78 135.47 1394.69 138.604 1397.44 140.507C1397.8 140.731 1397.92 141.067 1397.92 141.514C1397.08 150.134 1401.86 158.753 1409.74 163.231C1413.44 165.357 1417.74 166.365 1422.28 166.365C1426.11 166.365 1429.93 165.581 1433.15 164.014C1431.24 163.454 1429.33 162.559 1427.66 161.44C1427.06 161.104 1426.94 160.432 1427.3 159.872C1427.66 159.313 1428.38 159.201 1428.97 159.537C1434.83 163.231 1442.83 163.79 1449.16 160.992C1449.76 160.768 1450.47 160.992 1450.71 161.552C1450.95 162.111 1450.71 162.783 1450.11 163.007C1447.13 164.35 1443.78 165.022 1440.44 165.022C1439.72 165.022 1439.01 165.022 1438.17 164.91C1444.5 177.895 1459.07 187.186 1474.36 187.857C1490.49 188.529 1506.37 179.574 1513.42 166.141C1513.54 165.805 1513.9 165.581 1514.26 165.581C1514.38 165.581 1514.38 165.581 1514.5 165.581C1514.73 165.581 1515.09 165.693 1515.33 165.805C1520.47 169.947 1527.4 172.298 1534.56 172.298C1538.27 172.298 1541.85 171.626 1545.07 170.395C1554.27 166.925 1561.2 158.865 1562.87 149.798C1561.8 150.358 1560.72 150.805 1559.65 151.029C1558.09 151.477 1556.54 151.589 1554.99 151.589C1550.33 151.589 1545.67 149.798 1542.45 146.664C1541.97 146.216 1541.97 145.544 1542.45 145.096C1542.92 144.649 1543.64 144.649 1544.12 145.096C1547.82 148.79 1553.79 150.246 1558.93 148.79C1564.07 147.335 1568.25 143.082 1569.2 138.156C1569.32 137.596 1569.92 137.149 1570.64 137.261C1571.23 137.373 1571.71 137.932 1571.59 138.604C1570.87 142.186 1568.72 145.544 1565.74 147.895C1569.2 153.38 1575.77 157.074 1582.46 157.074C1583.66 157.074 1584.85 156.962 1586.04 156.738C1594.05 155.059 1599.9 146.887 1598.23 139.723C1596.91 134.238 1590.82 129.761 1584.61 129.761C1582.82 129.761 1581.15 130.097 1579.71 130.768C1579.35 130.992 1578.88 130.88 1578.52 130.768C1578.16 130.544 1577.92 130.208 1577.92 129.873C1577.56 121.365 1572.07 113.306 1563.95 109.388C1560.36 107.709 1556.3 106.701 1552.12 106.701C1547.1 106.701 1542.09 108.044 1538.15 110.507C1537.79 110.731 1537.43 110.731 1537.07 110.619C1536.71 110.507 1536.47 110.171 1536.35 109.836C1533.49 95.1715 1522.02 82.1865 1507.09 76.9253C1502.07 75.1343 1496.58 74.2388 1490.96 74.2388C1480.33 74.2388 1469.94 77.485 1461.94 83.4178C1456.09 87.7835 1450.11 95.3953 1452.62 102.895C1452.62 103.007 1452.62 103.231 1452.62 103.343C1458.24 100.992 1464.93 100.545 1470.78 102.671C1471.38 102.895 1471.73 103.567 1471.5 104.127C1471.26 104.686 1470.54 105.022 1469.94 104.798C1460.98 101.552 1449.64 105.134 1444.5 112.746C1443.19 114.761 1442.23 117 1441.28 119.238C1441.04 119.798 1440.44 120.022 1439.84 119.91C1436.02 118.791 1431.36 120.806 1429.57 124.276C1427.78 127.746 1428.85 132.223 1432.08 134.798C1432.56 135.246 1432.68 135.917 1432.2 136.365C1431.96 136.589 1431.6 136.813 1431.24 136.813C1431 136.813 1430.64 136.701 1430.53 136.589C1426.58 133.455 1425.15 127.746 1427.42 123.38C1429.57 119.238 1434.71 116.776 1439.48 117.671C1440.32 115.656 1441.28 113.641 1442.59 111.739C1444.62 108.604 1447.61 106.142 1450.95 104.462C1442.59 99.3132 1432.91 97.7461 1425.51 100.433C1421.21 102 1417.39 105.694 1415.71 110.059C1414.28 113.641 1414.4 117.224 1416.07 120.134C1416.31 120.582 1416.19 121.253 1415.71 121.589C1415.24 121.925 1414.64 121.925 1414.16 121.477C1411.89 119.574 1408.79 118.455 1405.32 118.455C1401.14 118.455 1397.32 120.022 1394.93 122.82C1392.78 125.059 1391.82 128.417 1392.3 132Z" fill="#C1E3F8"/>
<path d="M1516.17 96.7386C1521.3 96.5148 1526.32 99.4252 1528.47 103.791C1529.3 105.47 1529.42 106.925 1528.83 108.156C1528.71 108.604 1528.35 108.94 1528.11 109.276C1529.3 110.283 1530.38 111.627 1530.86 113.306C1531.81 116.216 1531.1 119.126 1529.07 120.918C1528.83 121.141 1528.59 121.253 1528.23 121.253C1527.87 121.253 1527.63 121.141 1527.39 120.918C1526.92 120.47 1526.92 119.798 1527.39 119.35C1528.71 118.119 1529.18 115.992 1528.59 113.977C1527.99 112.298 1526.92 110.955 1525.36 110.395C1524.88 110.395 1524.41 110.171 1523.93 109.947C1523.45 109.612 1523.33 109.052 1523.57 108.604C1523.81 108.156 1524.29 107.821 1524.88 107.933C1525.24 108.045 1525.48 108.045 1525.84 108.156C1526.2 108.045 1526.56 107.821 1526.68 107.485C1527.03 106.701 1526.68 105.694 1526.32 104.91C1524.53 101.328 1520.47 98.9774 1516.28 99.2013C1515.57 99.2013 1515.09 98.7536 1515.09 98.0819C1514.97 97.2983 1515.45 96.7386 1516.17 96.7386Z" fill="#C1E3F8"/>
<ellipse cx="1489.4" cy="105.305" rx="2.61867" ry="3.9863" fill="#C1E3F8"/>
<ellipse cx="1445.26" cy="129.044" rx="3.69356" ry="2.61951" fill="#C1E3F8"/>
<ellipse cx="1435.44" cy="129.044" rx="3.65576" ry="2.61951" fill="#C1E3F8"/>
</g>
<g clip-path="url(#clip5_3_664)">
<path d="M467.908 383.402C465.858 383.402 464.02 383.923 462.677 384.808C462.394 384.964 462.041 385.016 461.758 384.86C461.475 384.703 461.404 384.443 461.546 384.183C462.536 382.83 462.606 381.112 461.758 379.499C460.768 377.521 458.506 375.803 455.961 375.022C451.578 373.721 445.851 374.45 440.902 376.896C442.882 377.729 444.649 378.874 445.851 380.279C446.629 381.164 447.124 382.101 447.689 383.038C450.446 382.674 453.557 383.767 454.83 385.692C456.102 387.722 455.325 390.325 452.992 391.834C452.85 391.938 452.709 391.938 452.567 391.938C452.355 391.938 452.143 391.886 452.002 391.73C451.719 391.522 451.79 391.158 452.072 391.001C453.981 389.804 454.618 387.722 453.557 386.109C452.497 384.495 449.74 383.558 447.477 384.079C447.124 384.183 446.77 384.027 446.629 383.767C446.063 382.726 445.498 381.685 444.72 380.748C441.68 377.208 434.964 375.543 429.662 377.052C429.308 377.156 428.884 377 428.743 376.74C428.601 376.48 428.813 376.167 429.167 376.063C432.631 375.074 436.59 375.283 439.913 376.376C439.913 376.324 439.913 376.219 439.913 376.167C441.397 372.68 437.863 369.141 434.398 367.111C429.591 364.352 423.511 362.843 417.219 362.843C413.897 362.843 410.645 363.259 407.675 364.092C398.838 366.538 392.051 372.576 390.355 379.394C390.284 379.551 390.143 379.707 389.931 379.759C389.718 379.811 389.436 379.811 389.294 379.707C386.891 378.562 383.992 377.937 381.023 377.937C378.548 377.937 376.145 378.353 374.024 379.186C369.217 381.008 366.035 384.756 365.752 388.711C365.752 388.867 365.611 389.024 365.399 389.128C365.187 389.232 364.904 389.232 364.692 389.128C363.773 388.815 362.854 388.659 361.793 388.659C358.117 388.659 354.512 390.741 353.734 393.292C352.744 396.623 356.208 400.422 360.945 401.203C361.652 401.307 362.359 401.359 363.066 401.359C366.954 401.359 370.913 399.642 372.963 397.091C371.196 395.998 369.924 394.437 369.499 392.771C369.429 392.511 369.711 392.199 370.065 392.147C370.489 392.094 370.843 392.303 370.913 392.563C371.479 394.853 373.953 396.831 376.993 397.508C380.033 398.184 383.568 397.456 385.759 395.79C386.042 395.582 386.466 395.582 386.749 395.79C387.032 395.998 387.032 396.311 386.749 396.519C384.84 397.976 382.083 398.809 379.326 398.809C378.407 398.809 377.488 398.705 376.569 398.549C375.933 398.392 375.226 398.184 374.66 397.976C375.65 402.192 379.821 405.992 385.194 407.553C387.173 408.126 389.224 408.438 391.415 408.438C395.586 408.438 399.757 407.345 402.797 405.419C402.939 405.315 403.08 405.315 403.292 405.315C403.363 405.315 403.363 405.315 403.434 405.315C403.646 405.367 403.858 405.471 403.928 405.575C408.099 411.821 417.573 415.933 427.046 415.673C436.095 415.413 444.72 411.04 448.467 405.003C448.043 405.055 447.619 405.055 447.124 405.055C445.144 405.055 443.165 404.742 441.397 404.118C441.044 404.014 440.903 403.702 441.044 403.441C441.185 403.181 441.609 403.077 441.963 403.181C445.781 404.482 450.446 404.222 453.911 402.504C454.264 402.348 454.688 402.4 454.9 402.661C455.112 402.921 455.042 403.233 454.688 403.389C453.698 403.91 452.567 404.274 451.436 404.586C453.416 405.263 455.607 405.679 457.87 405.679C460.556 405.679 463.101 405.159 465.293 404.222C469.959 402.192 472.786 398.132 472.292 394.124C472.292 393.916 472.362 393.76 472.574 393.656C474.2 392.771 475.332 391.366 475.614 389.7C475.897 388.087 475.332 386.473 474.059 385.328C472.645 384.131 470.383 383.402 467.908 383.402ZM402.232 374.45C399.757 374.398 397.354 375.491 396.293 377.104C396.081 377.469 395.869 377.937 396.081 378.301C396.152 378.458 396.364 378.562 396.576 378.614C396.717 378.562 396.93 378.51 397.142 378.51C397.495 378.458 397.778 378.614 397.919 378.822C398.061 379.03 397.919 379.29 397.707 379.446C397.424 379.603 397.142 379.655 396.859 379.655C396.01 379.915 395.303 380.54 394.95 381.32C394.526 382.309 394.809 383.246 395.657 383.819C395.94 384.027 395.94 384.339 395.657 384.547C395.516 384.651 395.303 384.703 395.162 384.703C394.95 384.703 394.809 384.651 394.667 384.547C393.465 383.715 393.112 382.309 393.607 381.008C393.89 380.227 394.526 379.603 395.233 379.134C395.021 378.978 394.879 378.822 394.809 378.614C394.455 378.041 394.597 377.365 395.021 376.584C396.293 374.554 399.262 373.253 402.302 373.305C402.727 373.305 403.009 373.565 403.009 373.825C403.009 374.242 402.656 374.45 402.232 374.45Z" fill="white"/>
<path d="M472.294 394.177C472.294 393.969 472.364 393.812 472.576 393.708C474.202 392.823 475.334 391.418 475.616 389.753C475.616 389.7 475.616 389.7 475.616 389.648C473.849 390.585 471.375 390.898 469.607 390.013C469.395 392.98 467.345 395.998 463.881 397.404C460.346 398.861 455.327 398.341 452.994 395.894C449.176 399.85 441.399 400.11 434.895 399.434C430.442 398.965 424.927 397.3 425.21 393.968C421.322 396.883 415.454 398.341 410.01 397.716C404.496 397.091 399.477 394.489 396.932 390.846C390.286 393.76 381.378 393.708 374.874 390.637C373.885 391.73 372.541 392.667 371.057 393.344C371.905 395.322 374.167 396.935 376.854 397.56C379.894 398.237 383.429 397.508 385.62 395.842C385.903 395.634 386.327 395.634 386.61 395.842C386.893 396.05 386.893 396.363 386.61 396.571C384.701 398.028 381.944 398.861 379.187 398.861C378.268 398.861 377.349 398.757 376.43 398.601C375.793 398.445 375.086 398.237 374.521 398.028C375.511 402.244 379.682 406.044 385.055 407.605C387.034 408.178 389.084 408.49 391.276 408.49C395.447 408.49 399.618 407.397 402.658 405.471C402.799 405.367 402.941 405.367 403.153 405.367C403.224 405.367 403.223 405.367 403.294 405.367C403.506 405.419 403.718 405.523 403.789 405.628C407.96 411.873 417.433 415.985 426.907 415.725C435.956 415.465 444.581 411.093 448.328 405.055C447.903 405.107 447.479 405.107 446.984 405.107C445.005 405.107 443.025 404.795 441.258 404.17C440.905 404.066 440.763 403.754 440.905 403.494C441.046 403.233 441.47 403.129 441.824 403.233C445.641 404.535 450.307 404.274 453.771 402.557C454.125 402.4 454.549 402.453 454.761 402.713C454.973 402.973 454.902 403.285 454.549 403.441C453.559 403.962 452.428 404.326 451.297 404.639C453.276 405.315 455.468 405.732 457.73 405.732C460.417 405.732 462.962 405.211 465.153 404.274C469.961 402.192 472.789 398.185 472.294 394.177Z" fill="#EAF7FD"/>
<path d="M360.876 401.306C361.583 401.41 362.29 401.463 362.997 401.463C366.885 401.463 370.844 399.745 372.894 397.195C371.481 396.362 370.42 395.217 369.855 393.967C364.835 395.841 358.331 395.685 353.665 393.447C352.746 396.83 356.21 400.526 360.876 401.306Z" fill="#EAF7FD"/>
<path d="M467.909 382.361C466.354 382.361 464.869 382.621 463.597 383.09C463.95 381.841 463.809 380.487 463.102 379.134C461.971 376.844 459.496 374.918 456.456 374.085C452.073 372.784 446.488 373.305 441.469 375.387C442.034 371.847 438.57 368.412 435.106 366.434C430.087 363.519 423.653 361.906 417.008 361.906C413.473 361.906 410.15 362.374 406.969 363.259C397.991 365.757 390.992 371.743 388.941 378.614C386.467 377.625 383.71 377.104 380.741 377.104C378.054 377.104 375.368 377.573 373.105 378.457C368.157 380.331 364.763 384.079 364.198 388.139C363.349 387.93 362.501 387.826 361.582 387.826C357.199 387.826 353.028 390.221 352.179 393.239C351.048 397.195 354.866 401.463 360.451 402.4C361.229 402.556 362.077 402.608 362.925 402.608C366.814 402.608 370.773 401.099 373.176 398.757C374.449 403.181 378.832 407.085 384.488 408.75C386.608 409.375 388.871 409.687 391.274 409.687C395.445 409.687 399.617 408.646 402.869 406.824C407.322 412.862 416.513 416.922 425.915 416.922C426.269 416.922 426.622 416.922 426.905 416.922C436.591 416.61 445.852 411.873 449.74 405.367C452.144 406.356 454.83 406.876 457.729 406.876C460.698 406.876 463.526 406.304 465.93 405.263C470.949 403.077 473.989 398.757 473.635 394.489C475.403 393.448 476.605 391.834 476.887 390.012C477.241 388.087 476.534 386.213 475.049 384.86C473.494 383.246 470.808 382.361 467.909 382.361ZM475.615 389.804C475.332 391.418 474.201 392.875 472.575 393.76C472.363 393.864 472.292 394.02 472.292 394.228C472.787 398.236 469.959 402.244 465.293 404.326C463.102 405.315 460.557 405.783 457.87 405.783C455.608 405.783 453.346 405.419 451.437 404.69C452.568 404.43 453.699 404.014 454.689 403.493C455.042 403.337 455.113 403.025 454.901 402.765C454.689 402.504 454.265 402.452 453.911 402.608C450.447 404.326 445.71 404.586 441.964 403.285C441.61 403.181 441.186 403.285 441.044 403.545C440.903 403.806 441.044 404.118 441.398 404.222C443.165 404.846 445.145 405.159 447.124 405.159C447.549 405.159 447.973 405.159 448.468 405.107C444.721 411.144 436.096 415.465 427.047 415.777C417.503 416.089 408.1 411.925 403.929 405.679C403.858 405.523 403.646 405.419 403.434 405.419C403.363 405.419 403.363 405.419 403.293 405.419C403.151 405.419 402.939 405.471 402.798 405.523C399.758 407.449 395.658 408.542 391.416 408.542C389.224 408.542 387.103 408.23 385.195 407.657C379.751 406.044 375.651 402.296 374.661 398.08C375.297 398.34 375.933 398.549 376.57 398.653C377.489 398.861 378.408 398.913 379.327 398.913C382.084 398.913 384.841 398.08 386.75 396.623C387.033 396.414 387.033 396.102 386.75 395.894C386.467 395.686 386.043 395.686 385.76 395.894C383.569 397.612 380.034 398.288 376.994 397.612C373.954 396.935 371.479 394.957 370.914 392.667C370.843 392.407 370.49 392.198 370.066 392.251C369.712 392.303 369.429 392.563 369.5 392.875C369.924 394.541 371.197 396.102 372.964 397.195C370.914 399.746 367.026 401.463 363.067 401.463C362.36 401.463 361.653 401.411 360.946 401.307C356.209 400.526 352.745 396.727 353.735 393.396C354.512 390.845 358.118 388.763 361.794 388.763C362.855 388.763 363.844 388.919 364.693 389.232C364.905 389.336 365.188 389.284 365.4 389.232C365.612 389.128 365.753 388.971 365.753 388.815C365.965 384.86 369.217 381.112 374.025 379.29C376.145 378.51 378.549 378.041 381.023 378.041C383.993 378.041 386.962 378.666 389.295 379.811C389.507 379.915 389.719 379.915 389.931 379.863C390.143 379.811 390.285 379.655 390.355 379.498C392.052 372.68 398.839 366.642 407.676 364.196C410.645 363.363 413.897 362.947 417.22 362.947C423.512 362.947 429.662 364.456 434.399 367.215C437.863 369.245 441.398 372.784 439.913 376.271C439.913 376.323 439.913 376.428 439.913 376.48C436.591 375.387 432.632 375.178 429.168 376.167C428.814 376.271 428.602 376.584 428.743 376.844C428.885 377.104 429.309 377.26 429.662 377.156C434.965 375.647 441.681 377.312 444.721 380.852C445.498 381.789 446.064 382.83 446.63 383.871C446.771 384.131 447.124 384.235 447.478 384.183C449.74 383.662 452.497 384.599 453.558 386.213C454.618 387.826 453.982 389.908 452.073 391.105C451.79 391.314 451.72 391.626 452.002 391.834C452.144 391.938 452.356 392.042 452.568 392.042C452.709 392.042 452.921 391.99 452.992 391.938C455.325 390.481 456.173 387.826 454.83 385.796C453.558 383.871 450.518 382.726 447.69 383.142C447.195 382.205 446.629 381.268 445.852 380.383C444.65 378.926 442.883 377.781 440.903 377C445.852 374.606 451.578 373.877 455.961 375.126C458.506 375.855 460.769 377.573 461.758 379.603C462.607 381.268 462.536 382.934 461.546 384.287C461.405 384.495 461.476 384.807 461.758 384.964C462.041 385.12 462.395 385.12 462.677 384.912C464.021 384.027 465.859 383.506 467.909 383.506C470.383 383.506 472.646 384.235 474.06 385.536C475.332 386.577 475.898 388.139 475.615 389.804Z" fill="#C1E3F8"/>
<path d="M402.304 373.409C399.264 373.304 396.295 374.658 395.022 376.688C394.527 377.468 394.456 378.145 394.81 378.718C394.881 378.926 395.093 379.082 395.234 379.238C394.527 379.707 393.891 380.331 393.608 381.112C393.043 382.465 393.467 383.818 394.669 384.651C394.81 384.755 394.951 384.807 395.163 384.807C395.375 384.807 395.517 384.755 395.658 384.651C395.941 384.443 395.941 384.131 395.658 383.923C394.881 383.35 394.598 382.361 394.951 381.424C395.305 380.643 395.941 380.019 396.86 379.759C397.143 379.759 397.426 379.654 397.708 379.55C397.991 379.394 398.062 379.134 397.921 378.926C397.779 378.718 397.496 378.561 397.143 378.614C396.931 378.666 396.789 378.666 396.577 378.718C396.365 378.666 396.153 378.561 396.082 378.405C395.87 378.041 396.082 377.573 396.295 377.208C397.355 375.543 399.759 374.45 402.233 374.554C402.657 374.554 402.94 374.345 402.94 374.033C403.011 373.669 402.728 373.409 402.304 373.409Z" fill="#C1E3F8"/>
</g>
<g clip-path="url(#clip6_3_664)">
<path d="M602.605 631.169C606.135 631.169 609.469 630.399 612.41 628.944C612.901 628.687 613.489 628.858 613.783 629.2C617.412 634.421 623.785 637.93 630.748 638.786C631.728 638.872 632.709 638.957 633.689 638.957C639.573 638.957 645.26 636.989 649.574 633.651C647.417 632.795 645.358 631.682 643.298 630.57C642.808 630.313 642.71 629.799 643.004 629.372C643.298 628.944 643.887 628.858 644.377 629.115C647.122 630.57 649.966 632.11 653.006 632.966C656.34 633.908 659.576 633.822 662.027 632.881C662.518 632.709 663.106 632.881 663.302 633.309C663.498 633.736 663.302 634.25 662.812 634.421C661.243 635.02 659.478 635.363 657.615 635.363C655.948 635.363 654.183 635.106 652.32 634.592C652.32 634.592 652.222 634.592 652.222 634.507C657.321 640.07 665.852 643.493 674.873 643.493C681.737 643.493 688.111 641.525 692.817 638.016C693.014 637.845 693.21 637.845 693.504 637.845H693.602C693.896 637.845 694.092 638.016 694.288 638.187C697.426 641.867 702.82 644.093 708.703 644.093C714.39 644.093 719.587 642.038 722.725 638.615C725.47 635.534 730.275 635.106 734.982 634.678C737.531 634.421 740.179 634.25 742.238 633.565C753.024 630.142 762.241 622.011 765.672 612.939C767.633 607.804 768.613 600.015 762.533 591.97C757.826 585.722 748.804 581.699 739.685 581.699C734.39 581.699 729.487 582.983 725.565 585.465C725.369 585.636 724.977 585.636 724.781 585.636C724.486 585.551 724.29 585.38 724.094 585.123C719.583 576.222 709.581 569.803 698.5 568.605C697.814 568.519 697.226 568.519 696.637 568.519C694.186 568.519 692.421 569.118 691.538 570.231C691.342 570.487 691.048 570.573 690.656 570.573C690.362 570.573 690.068 570.402 689.871 570.145C683.693 560.131 670.259 553.969 654.962 553.969C650.648 553.969 646.529 554.483 642.509 555.424C631.625 558.163 622.408 563.726 616.721 571.258C610.936 578.875 609.074 588.632 611.722 596.848C615.448 594.195 620.351 592.997 625.155 593.51C626.43 593.682 627.803 594.11 628.587 594.88C630.254 592.74 633.294 591.371 636.334 591.542C640.06 591.713 643.394 594.024 644.571 597.191C644.767 597.619 644.473 598.132 643.885 598.303C643.394 598.474 642.806 598.218 642.61 597.704C641.727 595.222 638.981 593.425 636.138 593.254C633.196 593.082 630.352 594.794 629.47 597.191C629.274 597.619 628.882 597.875 628.392 597.79C627.901 597.704 627.607 597.362 627.607 596.934C627.607 596.164 626.234 595.479 624.861 595.308C620.056 594.709 614.958 596.249 611.624 599.33C608.29 602.412 606.82 606.862 607.702 611.056C607.8 611.484 607.408 611.997 606.918 612.083C606.82 612.083 606.82 612.083 606.722 612.083C606.232 612.083 605.839 611.826 605.741 611.398C604.76 606.948 606.231 602.069 609.663 598.646C607.505 597.875 605.152 597.533 602.799 597.533C596.425 597.533 590.248 600.101 586.718 604.294C581.325 610.628 581.914 620.128 587.896 625.948C591.426 629.115 596.917 631.169 602.605 631.169ZM721.646 636.304C722.823 636.047 723.803 635.277 724.784 634.678C728.608 632.11 732.04 629.543 733.314 626.034C733.412 625.777 733.706 625.52 734.001 625.435C734.295 625.349 734.687 625.435 734.883 625.606C735.962 626.547 737.629 626.975 739.394 626.889C741.061 626.804 742.63 626.119 743.61 625.092C744.591 624.065 744.885 622.439 744.002 621.754C743.61 621.412 743.512 620.898 743.904 620.556C744.296 620.214 744.885 620.128 745.277 620.47C747.238 621.925 746.748 624.579 745.179 626.205C743.806 627.574 741.747 628.43 739.492 628.601C737.727 628.687 736.06 628.344 734.687 627.574C733.02 630.998 729.687 633.48 725.961 635.962C724.882 636.646 723.705 637.502 722.136 637.845C721.548 638.016 720.862 638.101 720.175 638.101C718.704 638.101 717.234 637.759 715.959 637.502L710.075 636.133C709.585 636.047 709.291 635.534 709.389 635.106C709.487 634.678 710.075 634.421 710.566 634.507L716.547 635.962C718.214 636.304 719.979 636.732 721.646 636.304ZM698.011 585.037C700.659 583.839 704.09 583.925 706.738 585.208C708.993 586.321 710.465 588.375 710.955 590.6C713.112 590.173 715.564 590.857 717.133 592.398C718.702 594.024 719.388 596.335 719.094 598.817C718.996 599.416 718.604 600.101 717.918 600.357C717.721 600.443 717.525 600.443 717.329 600.443C717.035 600.443 716.839 600.357 716.545 600.272C716.054 600.015 715.956 599.502 716.251 599.074C716.447 598.817 716.741 598.731 717.035 598.731L717.035 598.646C717.329 596.677 716.839 594.794 715.564 593.596C714.289 592.312 712.034 591.799 710.465 592.569C710.171 592.74 709.778 592.74 709.484 592.569C709.19 592.398 708.994 592.141 708.994 591.884C708.994 589.83 707.621 587.776 705.562 586.749C703.502 585.722 700.855 585.636 698.796 586.578C698.305 586.835 697.717 586.663 697.521 586.236C697.325 585.808 697.521 585.294 698.011 585.037ZM659.571 562.271C663.003 561.501 666.827 562.1 670.063 563.983C673.299 565.866 675.457 568.69 676.045 571.686C676.144 572.114 675.751 572.627 675.261 572.627C675.163 572.627 675.163 572.627 675.065 572.627C674.575 572.627 674.182 572.285 674.084 571.942C673.594 569.375 671.731 566.978 668.985 565.352C666.239 563.726 663.003 563.213 660.062 563.897C659.571 563.983 658.983 563.726 658.885 563.298C658.689 562.785 658.983 562.357 659.571 562.271Z" fill="white"/>
<path d="M750.475 608.574C748.71 609.087 746.749 608.916 744.984 609.43C743.023 610.029 741.356 611.313 739.591 612.254C733.806 615.335 725.765 614.907 720.568 611.141C716.744 618.416 704.782 621.241 697.329 616.533C683.798 626.975 660.362 625.349 648.987 613.11C642.613 620.214 628.003 619.443 622.609 611.74C617.118 613.538 611.627 615.25 605.842 616.105C599.174 617.132 591.722 616.961 586.23 613.367C585.152 612.682 584.171 611.74 583.288 610.713C582.112 615.934 583.681 621.669 587.8 625.606C591.33 629.029 596.92 631.083 602.607 631.083C606.137 631.083 609.471 630.313 612.412 628.858C612.903 628.601 613.491 628.772 613.785 629.115C617.414 634.336 623.788 637.845 630.75 638.7C631.73 638.786 632.711 638.872 633.691 638.872C639.575 638.872 645.262 636.903 649.576 633.565C647.419 632.709 645.36 631.597 643.3 630.484C642.81 630.227 642.712 629.714 643.006 629.286C643.3 628.858 643.889 628.772 644.379 629.029C647.125 630.484 649.968 632.025 653.008 632.881C656.342 633.822 659.578 633.736 662.029 632.795C662.52 632.624 663.108 632.795 663.304 633.223C663.5 633.651 663.304 634.164 662.814 634.336C661.245 634.935 659.48 635.277 657.617 635.277C655.95 635.277 654.185 635.02 652.322 634.507C652.322 634.507 652.224 634.507 652.224 634.421C657.323 639.984 665.854 643.408 674.876 643.408C681.74 643.408 688.113 641.439 692.82 637.93C693.016 637.759 693.212 637.759 693.506 637.759H693.604C693.898 637.759 694.094 637.93 694.291 638.101C697.429 641.782 702.822 644.007 708.705 644.007C714.393 644.007 719.589 641.953 722.727 638.529C725.472 635.448 730.277 635.02 734.984 634.592C737.533 634.336 740.181 634.164 742.24 633.48C753.026 630.056 762.243 621.925 765.674 612.853C767.341 608.488 768.321 602.155 764.693 595.393C762.241 598.389 759.594 601.384 756.849 604.209C755.084 605.921 753.123 607.803 750.475 608.574ZM745.083 626.29C743.711 627.66 741.651 628.516 739.396 628.687C737.631 628.772 735.964 628.43 734.591 627.66C732.924 631.083 729.591 633.565 725.865 636.047C724.786 636.732 723.61 637.588 722.041 637.93C721.452 638.101 720.766 638.187 720.08 638.187C718.609 638.187 717.138 637.845 715.863 637.588L710.078 636.133C709.587 636.047 709.293 635.534 709.391 635.106C709.489 634.678 710.077 634.421 710.568 634.507L716.549 635.962C718.118 636.304 719.981 636.818 721.648 636.39C722.825 636.133 723.805 635.363 724.786 634.763C728.61 632.196 732.042 629.628 733.316 626.119C733.414 625.862 733.709 625.606 734.003 625.52C734.297 625.434 734.689 625.52 734.885 625.691C735.964 626.633 737.631 627.061 739.396 626.975C741.063 626.889 742.632 626.205 743.612 625.178C744.593 624.151 744.887 622.524 744.004 621.84C743.612 621.497 743.514 620.984 743.906 620.642C744.298 620.299 744.887 620.214 745.279 620.556C747.142 622.011 746.652 624.664 745.083 626.29Z" fill="#EAF7FD"/>
<path d="M602.606 632.88C606.137 632.88 609.568 632.195 612.51 630.826C616.531 636.047 623.101 639.641 630.357 640.497C631.436 640.583 632.514 640.668 633.593 640.668C639.672 640.668 645.752 638.7 650.36 635.276C655.852 641.439 665.069 645.205 674.875 645.205C681.837 645.205 688.309 643.322 693.31 639.813C696.84 643.493 702.527 645.718 708.705 645.718C714.98 645.718 720.766 643.407 724.295 639.556C726.551 637.074 730.767 636.731 735.18 636.304C737.827 636.047 740.573 635.79 742.926 635.105C754.398 631.425 763.811 623.123 767.537 613.366C770.478 605.492 769.301 597.704 764.103 590.857C758.906 584.01 749.59 579.816 739.588 579.816C734.293 579.816 729.391 581.014 725.272 583.325C720.271 574.424 709.975 567.919 698.6 566.721C695.168 566.379 692.422 566.807 690.755 568.09C683.989 558.162 670.26 552 654.767 552C650.355 552 645.942 552.514 641.824 553.541C630.45 556.365 620.938 562.185 614.958 570.059C608.977 577.933 606.918 587.861 609.566 596.505C607.409 595.821 605.055 595.564 602.702 595.564C595.74 595.564 588.974 598.474 585.052 603.096C579.169 610.028 579.758 620.47 586.427 626.889C590.349 630.569 596.331 632.88 602.606 632.88ZM586.621 604.037C590.151 599.843 596.329 597.276 602.702 597.276C605.154 597.276 607.507 597.618 609.566 598.388C606.134 601.812 604.664 606.69 605.645 611.141C605.743 611.569 606.135 611.826 606.625 611.826C606.723 611.826 606.723 611.826 606.822 611.826C607.312 611.74 607.704 611.312 607.606 610.798C606.723 606.605 608.194 602.154 611.527 599.073C614.861 595.992 619.96 594.451 624.765 595.05C626.138 595.222 627.51 595.821 627.511 596.677C627.511 597.105 627.805 597.447 628.295 597.532C628.785 597.618 629.276 597.361 629.374 596.933C630.256 594.537 633.198 592.911 636.041 592.996C638.885 593.168 641.631 595.05 642.513 597.447C642.709 597.875 643.2 598.132 643.788 598.046C644.278 597.875 644.572 597.447 644.474 596.933C643.297 593.767 639.963 591.456 636.237 591.285C633.197 591.113 630.158 592.483 628.491 594.622C627.608 593.852 626.334 593.424 625.059 593.253C620.352 592.654 615.351 593.938 611.625 596.591C608.879 588.375 610.742 578.618 616.625 571C622.311 563.469 631.528 557.906 642.413 555.167C646.433 554.225 650.551 553.712 654.866 553.712C670.261 553.712 683.597 559.874 689.775 569.888C689.971 570.145 690.265 570.316 690.559 570.316C690.952 570.316 691.246 570.23 691.442 569.973C692.422 568.861 694.089 568.262 696.541 568.262C697.129 568.262 697.815 568.262 698.404 568.347C709.386 569.545 719.487 575.964 723.998 584.866C724.096 585.122 724.39 585.293 724.684 585.379C724.978 585.465 725.273 585.379 725.469 585.208C729.391 582.726 734.293 581.442 739.589 581.442C748.806 581.442 757.729 585.465 762.437 591.713C768.517 599.758 767.536 607.546 765.576 612.681C762.144 621.754 753.026 629.884 742.141 633.308C740.082 633.993 737.435 634.249 734.885 634.421C730.179 634.849 725.374 635.276 722.628 638.358C719.491 641.781 714.294 643.835 708.607 643.835C702.625 643.835 697.232 641.61 694.192 637.93C693.996 637.759 693.8 637.587 693.505 637.587H693.407C693.211 637.587 692.917 637.673 692.721 637.758C688.015 641.268 681.641 643.236 674.777 643.236C665.756 643.236 657.225 639.813 652.125 634.249C652.125 634.249 652.223 634.249 652.223 634.335C653.988 634.849 655.852 635.105 657.518 635.105C659.382 635.105 661.147 634.763 662.715 634.164C663.206 633.993 663.402 633.479 663.206 633.051C663.009 632.623 662.421 632.452 661.931 632.623C659.381 633.65 656.146 633.65 652.91 632.709C649.87 631.853 647.026 630.312 644.28 628.857C643.79 628.601 643.202 628.772 642.908 629.114C642.613 629.542 642.81 630.056 643.202 630.312C645.163 631.425 647.222 632.538 649.478 633.394C645.163 636.731 639.476 638.7 633.593 638.7C632.612 638.7 631.632 638.614 630.651 638.529C623.689 637.759 617.413 634.164 613.687 628.943C613.392 628.515 612.804 628.429 612.314 628.686C609.47 630.141 606.136 630.912 602.508 630.912C596.821 630.912 591.33 628.857 587.701 625.434C581.818 619.871 581.327 610.371 586.621 604.037Z" fill="#C1E3F8"/>
<path d="M710.567 634.506C710.076 634.42 709.488 634.677 709.39 635.105C709.292 635.533 709.586 636.046 710.076 636.132L716.058 637.587C717.333 637.843 718.705 638.186 720.274 638.186C720.863 638.186 721.549 638.1 722.236 637.929C723.706 637.587 724.981 636.731 726.06 636.046C729.688 633.564 733.119 631.082 734.786 627.659C736.159 628.429 737.826 628.771 739.591 628.686C741.846 628.6 743.905 627.744 745.278 626.289C746.847 624.663 747.337 622.01 745.376 620.555C744.984 620.213 744.297 620.298 744.003 620.64C743.611 620.983 743.709 621.582 744.101 621.839C745.082 622.523 744.69 624.235 743.709 625.177C742.729 626.204 741.16 626.888 739.493 626.974C737.826 627.059 736.159 626.632 734.982 625.69C734.688 625.519 734.394 625.433 734.1 625.519C733.805 625.605 733.511 625.776 733.413 626.118C732.237 629.627 728.707 632.195 724.883 634.762C724 635.361 722.922 636.132 721.745 636.389C720.176 636.816 718.313 636.389 716.646 635.961L710.567 634.506Z" fill="#C1E3F8"/>
<path d="M698.896 586.577C700.955 585.635 703.603 585.721 705.662 586.748C707.721 587.775 708.996 589.829 709.094 591.883C709.094 592.226 709.29 592.482 709.585 592.568C709.879 592.739 710.271 592.739 710.565 592.568C712.134 591.798 714.389 592.311 715.664 593.595C716.939 594.793 717.429 596.676 717.135 598.645L717.135 598.73C716.841 598.73 716.547 598.901 716.351 599.073C716.057 599.5 716.155 600.014 716.645 600.271C716.841 600.442 717.135 600.442 717.43 600.442C717.626 600.442 717.822 600.442 718.018 600.356C718.704 600.1 719.097 599.415 719.195 598.816C719.587 596.334 718.9 594.023 717.233 592.397C715.664 590.856 713.213 590.171 711.055 590.599C710.565 588.374 708.996 586.32 706.839 585.207C704.289 583.838 700.857 583.752 698.111 585.036C697.621 585.293 697.425 585.807 697.719 586.149C697.817 586.662 698.406 586.748 698.896 586.577Z" fill="#C1E3F8"/>
<path d="M660.064 563.897C663.006 563.212 666.242 563.811 668.988 565.352C671.733 566.978 673.597 569.374 674.087 571.942C674.185 572.37 674.577 572.627 675.068 572.627C675.068 572.627 675.166 572.627 675.264 572.627C675.754 572.541 676.146 572.113 676.048 571.685C675.558 568.604 673.302 565.78 670.066 563.982C666.83 562.099 663.006 561.5 659.574 562.271C659.084 562.356 658.692 562.87 658.888 563.298C658.986 563.726 659.574 563.982 660.064 563.897Z" fill="#C1E3F8"/>
</g>
</g>
<defs>
<clipPath id="clip0_3_664">
<rect width="1923" height="907" fill="white" transform="translate(-2)"/>
</clipPath>
<clipPath id="clip1_3_664">
<rect width="110.996" height="52" fill="white" transform="matrix(-1 0 0 1 573.974 503.948)"/>
</clipPath>
<clipPath id="clip2_3_664">
<rect width="207.002" height="100" fill="white" transform="matrix(-1 0 0 1 1200 109.687)"/>
</clipPath>
<clipPath id="clip3_3_664">
<rect width="86.9977" height="53.0156" fill="white" transform="matrix(-1 0 0 1 1219.96 364.907)"/>
</clipPath>
<clipPath id="clip4_3_664">
<rect width="211.191" height="118.32" fill="white" transform="matrix(-1 0 0 1 1601.19 72)"/>
</clipPath>
<clipPath id="clip5_3_664">
<rect width="124.997" height="55.0162" fill="white" transform="translate(351.98 361.906)"/>
</clipPath>
<clipPath id="clip6_3_664">
<rect width="188.113" height="93.7181" fill="white" transform="matrix(1 0 6.48024e-05 1 581 552)"/>
</clipPath>
</defs>
</svg>
