<svg width="84" height="10" viewBox="0 0 84 10" fill="none" xmlns="http://www.w3.org/2000/svg">
<path fill-rule="evenodd" clip-rule="evenodd" d="M0.272813 2.18892C-0.20787 3.67318 -0.393387 6.33515 2.71001 5.10899C5.27561 3.38705 7.184 4.02789 10.759 7.0251C15.4682 10.9743 19.0082 10.9897 23.6685 7.08232C28.2421 3.24751 30.2154 3.23729 34.7338 7.0251C39.4429 10.9743 42.9829 10.9897 47.6432 7.08232C52.2169 3.24751 54.1902 3.23729 58.7085 7.0251C63.3909 10.9508 66.9014 10.9478 71.0555 7.01181C74.7946 3.47026 77.3258 3.2097 80.5633 6.03191C83.5703 8.65282 84 8.60378 84 5.63749C84 3.86876 83.1388 2.74682 80.8639 1.5503C76.471 -0.758966 73.6023 -0.508621 70.7346 2.43722C66.1683 7.12626 65.2573 7.2642 61.1161 3.8892C55.2137 -0.920408 51.9882 -1.03485 46.2213 3.36093C43.5648 5.38511 40.9155 6.73287 40.3346 6.35378C39.7537 5.97571 37.9676 4.57687 36.3668 3.24547C31.3662 -0.912231 27.8133 -0.8826 22.2466 3.36093C19.59 5.38511 16.9408 6.73287 16.3599 6.35378C15.7789 5.97571 13.9928 4.57687 12.3921 3.24547C10.7913 1.91406 7.96871 0.553029 6.12173 0.220944C3.36279 -0.274628 2.31712 0.0768654 0.272813 2.18892Z" fill="#FF946E"/>
</svg>
