<svg width="105" height="10" viewBox="0 0 105 10" fill="none" xmlns="http://www.w3.org/2000/svg">
<path fill-rule="evenodd" clip-rule="evenodd" d="M3.13448 3.86763C-0.740766 2.8972 -0.221697 5.54229 0.522244 6.98614C5.73873 10.9958 9.83067 11.0039 14.3038 7.01459C18.5868 3.19495 20.5938 3.18987 25.5342 6.98614C30.6436 10.9135 34.4844 10.9287 39.5408 7.04304C44.5032 3.2295 46.6442 3.21934 51.5465 6.98614C56.656 10.9135 60.4968 10.9287 65.5532 7.04304C70.5156 3.2295 72.6566 3.21934 77.5589 6.98614C82.6394 10.8901 86.4482 10.8871 90.9553 6.97293C95.0122 3.45101 97.7586 3.1919 101.271 5.99846C104.534 8.60484 105 8.55606 105 5.60623C105 3.8473 104.066 2.73159 101.597 1.5417C96.8311 -0.754757 93.7186 -0.505801 90.6072 2.42371C85.6528 7.08674 84.6643 7.22391 80.1712 3.86763C73.7671 -0.915304 70.2675 -1.02911 64.0105 3.34229C61.1281 5.35525 58.2537 6.69553 57.6234 6.31854C56.9931 5.94257 55.0552 4.55149 53.3184 3.22747C47.8928 -0.907172 44.038 -0.877705 37.9981 3.34229C35.1157 5.35525 32.2413 6.69553 31.611 6.31854C30.9807 5.94257 29.0428 4.55149 27.306 3.22747C25.5692 1.90345 22.5067 0.549962 20.5028 0.219719C17.5093 -0.273105 16.3748 0.0764391 14.1567 2.17678C8.99927 7.0593 7.67864 7.26253 3.13448 3.86763Z" fill="#FF946E"/>
</svg>
