<svg width="150" height="11" viewBox="0 0 150 11" fill="none" xmlns="http://www.w3.org/2000/svg">
<path fill-rule="evenodd" clip-rule="evenodd" d="M0.00123268 7.92511C0.0170716 6.39727 1.34061 4.53733 3.71347 2.70721C8.10579 -0.681604 12.3061 -0.507843 17.1438 3.26139C18.8624 4.60108 20.7799 6.00863 21.4035 6.38904C22.0272 6.77049 24.8712 5.41435 27.7232 3.37757C33.6994 -0.892376 37.5136 -0.922191 42.882 3.26139C44.6005 4.60108 46.518 6.00863 47.1417 6.38904C47.7653 6.77049 50.6094 5.41435 53.4614 3.37757C59.4376 -0.892376 63.2518 -0.922191 68.6202 3.26139C70.3387 4.60108 72.2562 6.00863 72.8799 6.38904C73.5035 6.77049 76.3416 5.41846 79.1877 3.38579C85.057 -0.807043 88.1248 -0.821432 93.4407 3.31896C95.1196 4.62678 97.0044 6.00863 97.6281 6.38904C98.2517 6.77049 101.096 5.41435 103.948 3.37757C109.924 -0.892376 113.738 -0.922191 119.107 3.26139C120.825 4.60108 122.743 6.00863 123.366 6.38904C123.99 6.77049 126.834 5.41435 129.686 3.37757C135.877 -1.04557 139.34 -0.930419 145.676 3.90912C149.45 7.48856 154.216 13.1309 143.092 7.06454C138.241 3.25316 136.123 3.26344 131.212 7.12212C126.209 11.0538 122.409 11.0384 117.353 7.06454C112.503 3.25316 110.384 3.26344 105.474 7.12212C100.471 11.0538 96.6708 11.0384 91.6153 7.06454C88.0436 4.2587 84.639 3.59435 83.1227 4.77997C81.6063 5.96559 76.4456 10.1768 73.6639 10.149C72.0048 10.1326 69.0854 8.8083 66.867 7.06454C62.0164 3.25316 59.8979 3.26344 54.9879 7.12212C49.9848 11.0538 46.1844 11.0384 41.1288 7.06454C36.2782 3.25316 34.1597 3.26344 29.2497 7.12212C24.2466 11.0538 20.4462 11.0384 15.3907 7.06454C10.7063 3.38373 9.48575 3.30045 5.51316 6.39521C0.371467 10.3999 -0.0264853 10.5109 0.00123268 7.92511Z" fill="#FF946E"/>
</svg>
