<svg width="1920" height="604" viewBox="0 0 1920 604" fill="none" xmlns="http://www.w3.org/2000/svg">
<path d="M7.53127 516C-8.36676 499.264 52.6881 427.195 132.737 418.445C306.594 399.005 438.487 390.682 562.768 323.453C678.142 260.78 720.223 55.9033 1114.01 162.84C1392.62 236.954 1597.93 222.001 1646.42 186.776C1770.39 99.4724 1788.16 16.0445 1921 0.999983" stroke="#92D0FD" stroke-opacity="0.15" stroke-width="2"/>
<path d="M7.29351 521C-7.80894 503.698 53.6922 432.687 132.502 423.63C306.435 402.803 432.764 395.342 551.807 327.13C662.388 263.247 709.396 65.2676 1104.03 167.18C1389.25 237.908 1588.97 224.354 1639.33 186.051C1761.41 98.2665 1788.32 17.5887 1921 4.00001" stroke="#92D0FD" stroke-opacity="0.15" stroke-width="2"/>
<path d="M7.06627 525C-7.2406 507.133 54.7066 437.18 132.277 427.815C306.285 405.6 427.049 399.002 540.854 329.807C646.643 264.713 698.575 73.6333 1094.05 170.521C1385.87 237.86 1580.01 225.707 1632.25 184.325C1752.44 96.0593 1788.48 18.1324 1921 5.99998" stroke="#92D0FD" stroke-opacity="0.15" stroke-width="2"/>
<path d="M5.85002 530C-7.66127 511.567 54.7316 442.672 131.063 433.001C305.145 409.397 420.344 403.663 528.91 333.483C629.906 267.179 686.763 83.0007 1083.08 174.862C1381.5 238.812 1570.05 228.059 1624.18 183.597C1742.46 94.8509 1787.65 19.6757 1920 9" stroke="#92D0FD" stroke-opacity="0.15" stroke-width="2"/>
<path d="M5.64488 534C-7.07085 515.001 55.7672 447.165 130.859 437.187C305.013 412.194 414.648 407.323 517.975 336.16C614.179 268.644 675.96 91.3697 1073.11 178.203C1378.14 238.764 1561.1 229.411 1617.1 181.869C1733.49 92.6415 1787.81 20.2187 1920 11" stroke="#92D0FD" stroke-opacity="0.15" stroke-width="2"/>
<path d="M5.45108 539C-6.46911 519.435 56.8137 452.658 130.665 442.373C304.891 415.991 408.961 411.983 507.051 339.836C598.462 271.109 665.165 100.74 1063.15 182.544C1374.78 239.714 1552.15 231.763 1610.03 181.139C1724.51 91.4309 1787.97 21.7613 1920 14" stroke="#92D0FD" stroke-opacity="0.15" stroke-width="2"/>
<path d="M5.26851 544C-5.85619 523.868 57.8711 458.151 130.482 447.559C304.779 419.788 403.284 416.643 496.136 343.513C582.754 273.574 654.379 110.112 1053.2 186.885C1371.42 240.664 1543.2 234.114 1602.96 180.408C1715.54 90.2191 1788.14 23.3035 1920 17" stroke="#92D0FD" stroke-opacity="0.15" stroke-width="2"/>
<path d="M4.09824 548C-6.23641 527.302 57.9682 462.645 129.376 451.745C303.834 422.584 396.823 420.303 484.482 346.189C566.351 275.038 642.936 118.486 1042.79 190.226C1367.78 240.613 1534.06 235.465 1595.72 178.676C1706.47 88.0062 1788.23 23.8454 1920 19" stroke="#92D0FD" stroke-opacity="0.15" stroke-width="2"/>
<path d="M2.93902 553C-6.59984 531.735 58.0484 468.138 128.214 456.931C302.741 426.38 390.164 424.964 472.582 349.865C549.657 277.502 631.163 127.861 1031.85 194.568C1363.42 241.561 1524.11 237.816 1587.66 177.943C1696.5 86.7922 1787.4 25.3869 1919 22" stroke="#92D0FD" stroke-opacity="0.15" stroke-width="2"/>
<path d="M2.79161 557C-5.95155 535.169 59.1399 472.632 128.064 461.118C302.659 429.176 384.515 428.624 461.693 352.541C533.974 278.966 620.4 136.237 1021.91 197.909C1360.08 241.509 1515.17 239.166 1580.59 176.209C1687.53 84.5771 1787.57 25.928 1919 24" stroke="#92D0FD" stroke-opacity="0.15" stroke-width="2"/>
<path d="M2.65648 562C-5.29106 539.644 60.2431 478.283 127.925 466.483C302.587 433.213 378.877 433.525 450.816 356.601C518.303 281.954 609.647 146.393 1011.98 202.924C1356.73 243.053 1506.24 242.115 1573.53 176.197C1678.57 84.2556 1787.73 28.4679 1919 28" stroke="#92D0FD" stroke-opacity="0.15" stroke-width="2"/>
<path d="M2.53342 566C-4.61863 543.079 61.3577 482.778 127.798 470.672C302.525 436.014 373.249 437.188 439.95 359.283C502.644 283.427 598.905 154.772 1002.06 206.274C1353.39 243.013 1497.31 243.475 1566.48 174.479C1669.61 82.0589 1787.9 29.0246 1919 30.0135" stroke="#92D0FD" stroke-opacity="0.15" stroke-width="2"/>
<path d="M1.42299 571C-4.937 547.516 61.5155 488.282 126.748 475.87C301.63 439.828 366.824 441.866 428.318 362.987C486.25 285.93 587.48 164.196 991.658 210.663C1349.76 244.007 1488.16 245.87 1559.24 173.803C1660.52 80.9142 1788 30.6394 1919 33.0852" stroke="#92D0FD" stroke-opacity="0.15" stroke-width="2"/>
<path d="M1.32481 576C-4.23952 551.956 62.6544 493.795 126.643 481.08C301.589 443.659 361.216 446.559 417.471 366.717C470.608 288.468 576.754 173.668 981.747 215.095C1346.43 245.042 1479.23 248.305 1552.19 173.176C1651.56 79.8298 1788.17 32.3203 1919 36.2225" stroke="#92D0FD" stroke-opacity="0.15" stroke-width="2"/>
<path d="M0.239288 580C-4.52955 555.354 62.8052 498.169 125.551 485.128C300.558 446.26 354.62 450.029 405.635 369.085C453.979 289.509 565.04 181.457 970.844 217.908C1342.1 244.503 1469.31 249.174 1544.14 170.849C1641.61 76.8851 1787.35 32.0633 1918 37.4307" stroke="#92D0FD" stroke-opacity="0.15" stroke-width="2"/>
<path d="M0.166771 585C-3.80674 559.8 63.9681 503.706 125.471 490.364C300.539 450.126 349.036 454.758 394.813 372.871C438.364 292.124 554.337 191.042 960.95 222.439C1338.78 245.625 1460.39 251.697 1537.09 170.328C1632.66 75.9317 1787.52 33.8899 1918 40.7135" stroke="#92D0FD" stroke-opacity="0.15" stroke-width="2"/>
<path d="M-0.892973 589C-4.07301 563.25 64.1771 508.253 124.468 494.613C299.687 453.012 342.643 458.505 383.204 375.688C421.984 293.783 542.93 199.679 950.561 226.022C1335.15 245.799 1451.24 253.269 1529.85 168.871C1623.56 74.0567 1787.62 34.7982 1918 43.0758" stroke="#92D0FD" stroke-opacity="0.15" stroke-width="2"/>
<path d="M-0.93953 594C-3.32421 567.657 65.3653 513.666 124.412 499.705C299.689 456.67 337.08 463.033 372.403 379.148C406.389 295.948 532.246 208.668 940.68 229.998C1331.84 246.398 1442.33 255.279 1522.81 167.709C1614.62 72.3177 1787.8 35.7786 1918 45.5248" stroke="#92D0FD" stroke-opacity="0.15" stroke-width="2"/>
<path d="M-0.973181 598C-2.56273 571.116 66.5655 518.239 124.368 503.983C299.702 459.6 331.53 466.821 361.615 382.034C390.81 297.702 521.575 217.422 930.809 233.695C1328.53 246.684 1433.43 256.96 1515.78 166.39C1605.68 70.6105 1787.97 36.864 1918 48.0599" stroke="#92D0FD" stroke-opacity="0.15" stroke-width="2"/>
<path d="M-1.99311 603C-2.78776 575.531 66.7784 523.68 123.337 509.107C298.727 463.302 324.993 471.394 349.842 385.564C374.246 299.962 509.917 226.55 919.948 237.793C1324.22 247.393 1423.53 259.08 1507.75 165.362C1595.74 69.0372 1787.15 38.0276 1917 50.6914" stroke="#92D0FD" stroke-opacity="0.15" stroke-width="2"/>
</svg>
